<svg xmlns="http://www.w3.org/2000/svg" width="900" height="492.52" viewBox="0 0 900 492.52">
  <g id="_6" data-name="6" transform="translate(0 -2173.48)">
    <g id="_5" data-name="5" transform="translate(0 2772)">
      <rect id="사각형_30" data-name="사각형 30" width="900" height="150" transform="translate(0 -256)" fill="#fff"/>
    </g>
    <path id="패스_95" data-name="패스 95" d="M4.64,21.08h10.7V16.9H2.98v1.28H13.74v1.68H3.02v4.38H15.98V22.96H4.64Zm10.18-7.2a24.229,24.229,0,0,0,.42-5.12V7.4H3.14V8.7H13.62v.06c0,.52,0,1.08-.02,1.68l-10.9.34.2,1.3,10.62-.48c-.08.68-.18,1.44-.36,2.28H1.1V15.2H17.26V13.88Zm6.82.92h5.1V8.5H20V9.84h5.14v3.62H20.06v6.72h1.18a37.918,37.918,0,0,0,6.72-.5l-.12-1.36a35.906,35.906,0,0,1-6.2.5ZM33.12,6.54v7.08H30.58V6.94H29.04V23.56h1.54v-8.6h2.54v9.5H34.7V6.54Zm15.56,8.44a6.387,6.387,0,0,1-4.5-5.84V7.38H42.54V9.14a6.708,6.708,0,0,1-4.52,6.16l.84,1.3a7.744,7.744,0,0,0,4.52-4.58,7.541,7.541,0,0,0,4.48,4.26Zm-8.1,4.6H50.94V24.5h1.64V18.26h-12ZM50.94,6.56V17.34h1.64V6.56ZM65.62,16.6a44.6,44.6,0,0,0,.5-7.12V8.5H57.06V9.84h7.46a38.04,38.04,0,0,1-.54,6.6ZM61.5,13.62H59.88v5.52c-1.34.04-2.66.06-3.8.06l.18,1.36a73.1,73.1,0,0,0,11.12-.68l-.1-1.2c-1.82.22-3.82.34-5.78.42Zm11.38.42H70.02V6.54H68.38V24.48h1.64V15.42h2.86Zm8.54-3.98h5.12V8.74H79.8V20.16h1.16a29.283,29.283,0,0,0,6.64-.52l-.16-1.34a27.982,27.982,0,0,1-6.02.5Zm7.78,3.32H85.34v1.36H89.2v8.84h1.54V6.98H89.2Zm3.6-6.84V24.48h1.56V6.54Zm17.78,0V24.52h1.64V6.54Zm-7.82,1.38c-2.66,0-4.56,2.44-4.56,6.26s1.9,6.26,4.56,6.26,4.56-2.44,4.56-6.26S105.42,7.92,102.76,7.92Zm0,1.48c1.74,0,2.98,1.88,2.98,4.78,0,2.92-1.24,4.8-2.98,4.8-1.76,0-3-1.88-3-4.8C99.76,11.28,101,9.4,102.76,9.4Zm17.7-.46A2.161,2.161,0,0,1,122.88,11a2.463,2.463,0,0,1-4.86,0A2.179,2.179,0,0,1,120.46,8.94Zm0,5.36c2.24,0,3.9-1.36,3.9-3.3,0-1.96-1.66-3.3-3.9-3.3-2.26,0-3.9,1.34-3.9,3.3C116.56,12.94,118.2,14.3,120.46,14.3Zm4.58.92a69.747,69.747,0,0,1-9.34.46l.2,1.38c1.04,0,2.34,0,3.7-.06v6.04h1.56V16.9a28.41,28.41,0,0,0,4-.48Zm1.14,3.1h-3.36V19.6h3.36v3.96h1.54V6.98h-1.54Zm3.38-11.76V24.48h1.58V6.56Zm9.58,12.42c-1.72,0-2.92-1.88-2.92-4.8,0-2.9,1.2-4.78,2.92-4.78,1.7,0,2.9,1.88,2.9,4.78C142.04,17.1,140.84,18.98,139.14,18.98Zm8.34-12.44v6.84h-3.9c-.26-3.36-2.02-5.46-4.44-5.46-2.62,0-4.48,2.44-4.48,6.26s1.86,6.26,4.48,6.26c2.5,0,4.28-2.2,4.44-5.72h3.9v9.8h1.64V6.54ZM165.3,9.68H154.82v3.84h12.42V12.34h-10.8V10.8h10.48V7.06H154.78V8.22H165.3ZM156.34,21.4h10.64V17.58h-12.3v1.18h10.68v1.5H154.72v3.98h12.82V23.06h-11.2Zm-3.6-6.52v1.24H169V14.88Zm26.38-5.54h9.18v5.82h-9.18Zm5.44,11.48V16.46h5.34V8.04H177.54v8.42h5.36v4.36h-7.28v1.36h16.26V20.82Zm23.68-7.6H197.92V8.94h10.1V7.6H196.24v6.94h12Zm2.04,3.66H194.02v1.34h7.26V24.4h1.64V18.22h7.36Zm11.4,2.1c-1.74,0-2.96-1.88-2.96-4.8,0-2.9,1.22-4.78,2.96-4.78,1.72,0,2.94,1.88,2.94,4.78C224.62,17.1,223.4,18.98,221.68,18.98Zm0-11.06c-2.64,0-4.52,2.44-4.52,6.26s1.88,6.26,4.52,6.26,4.5-2.44,4.5-6.26S224.32,7.92,221.68,7.92Zm11.98,5.78H230.7V6.56h-1.64V24.48h1.64v-9.4h2.96Zm9.72-5.12c2.74,0,4.6,1.02,4.6,2.6,0,1.6-1.86,2.62-4.6,2.62-2.72,0-4.58-1.02-4.58-2.62C238.8,9.6,240.66,8.58,243.38,8.58Zm0,6.54c3.74,0,6.28-1.52,6.28-3.94,0-2.4-2.54-3.92-6.28-3.92-3.72,0-6.26,1.52-6.26,3.92C237.12,13.6,239.66,15.12,243.38,15.12Zm8.16,1.7H235.3v1.36h7.26V24.5h1.64V18.18h7.34Zm14.82-4.8H255.72V17.6h12.66V16.26H257.34V13.34h10.62V7.92H255.68V9.24h10.68Zm-12.68,8.84v1.36h16.3V20.86Zm32.8-8.92H275.92V7.2h-1.64v6.08h12.2ZM275.8,18.8h-1.64v5.24h12.42V22.7H275.8Zm-3.72-3.12V17h16.26V15.68Zm35.54-5H296.96v4.9h12.72V14.24H298.6v-2.3h10.68V7.26H296.9v1.3h10.72Zm3.62,6.74H294.96v1.34h7.3V24.5h1.64V18.76h7.34Zm3.62.2a9.527,9.527,0,0,0,6.66-4.82c1.14,2.46,4,4.22,6.72,4.78l.66-1.32c-3.12-.52-6.54-2.98-6.54-5.82V9.66h5.94V8.32H314.72V9.66h5.94v.78c0,2.84-3.4,5.34-6.5,5.88Zm-1.48,3.12V22.1h16.28V20.74Zm29.04-12h-4.48V6.54H336.3v2.2h-4.46v1.32h10.58Zm-8.02,5.64c0-1.24,1.1-2.04,2.72-2.04s2.74.8,2.74,2.04c0,1.26-1.12,2.06-2.74,2.06S334.4,15.64,334.4,14.38Zm7.02,0c0-2-1.76-3.32-4.3-3.32s-4.28,1.32-4.28,3.32c0,2.02,1.74,3.34,4.28,3.34S341.42,16.4,341.42,14.38Zm-5.24,4.56h-1.64v5.14H346.5V22.74H336.18Zm9.52-6.48V6.54h-1.64V20h1.64V13.84h2.64V12.46Zm11.2,2.38h4.26v-1.3H356.9V10.02H362V8.68h-6.68V20.16h1.16a31.431,31.431,0,0,0,6.54-.46l-.14-1.34a28.047,28.047,0,0,1-5.98.46Zm7.82-1.5h-2.58v1.34h2.58v8.88h1.54V6.98h-1.54Zm3.6-6.82V24.46h1.56V6.52Zm17.78.02V24.52h1.64V6.54Zm-7.82,1.38c-2.66,0-4.56,2.44-4.56,6.26s1.9,6.26,4.56,6.26,4.56-2.44,4.56-6.26S380.94,7.92,378.28,7.92Zm0,1.48c1.74,0,2.98,1.88,2.98,4.78,0,2.92-1.24,4.8-2.98,4.8-1.76,0-3-1.88-3-4.8C375.28,11.28,376.52,9.4,378.28,9.4Zm17,.36h2.9v8.76c-.98.06-1.96.1-2.9.12Zm4.5,0h2V8.42h-9.9V9.76h1.8v8.9c-.82.02-1.64.02-2.36.02l.18,1.38a76.139,76.139,0,0,0,10.96-.66l-.12-1.2c-.84.1-1.68.18-2.56.22Zm4.82-3.2V13.3h-3.42v1.36h3.42v9.82h1.64V6.56Zm19.64,8.58h-10.7V9.54h10.52V8.18H411.92v8.3h12.32Zm-14.4,5.56v1.36h16.28V20.7ZM447.46,6.56h-1.64V18.58h1.64ZM436.9,9.44h2.92v5.4c-.98.04-1.98.08-2.92.1Zm7.14,5.04c-.86.12-1.74.18-2.64.26V9.44h1.76V8.1h-9.62V9.44h1.76v5.52c-.8.02-1.56.02-2.24.02l.16,1.38a68.979,68.979,0,0,0,10.94-.68Zm-1.56,3.24H440.8v.34c0,2.56-2.8,4.52-6,5.06l.66,1.28c2.68-.52,5.12-1.92,6.18-4,1.06,2.08,3.48,3.48,6.18,4l.66-1.28c-3.22-.54-6-2.5-6-5.06Zm14.48-9.86c-2.78,0-4.8,1.7-4.8,4.22,0,2.5,2.02,4.22,4.8,4.22,2.8,0,4.8-1.72,4.8-4.22C461.76,9.56,459.76,7.86,456.96,7.86Zm0,1.4a2.9,2.9,0,0,1,3.2,2.82,3.226,3.226,0,0,1-6.4,0A2.909,2.909,0,0,1,456.96,9.26Zm7.16-2.72V24.52h1.64V6.54ZM451.46,20.58a65.957,65.957,0,0,0,11.62-.78l-.14-1.22a80.778,80.778,0,0,1-11.68.62Zm24.02-7.52.24,1.4,10.84-.58a37.275,37.275,0,0,1-.64,4.24l1.62.2a36.955,36.955,0,0,0,.76-8.34V8.28H475.96V9.62h10.72v.36c0,.82,0,1.68-.04,2.62Zm6.5,7.64V16.04h-1.64V20.7h-6.32v1.34h16.22V20.7Zm24.74-7.18H496.18V11.6h9.96V10.36h-9.96V8.48h10.44V7.2H494.54v7.6h12.18ZM496.14,19.1H494.5v4.98h12.44V22.74h-10.8Zm-3.74-2.62V17.8h16.22V16.48Zm34.24-3.14h2.22v6.78h1.58V6.56h-1.58V12h-2.22V6.88H525.1V19.5h1.54Zm-8.08-3.68h2.3V15.5c-.76.04-1.56.06-2.3.08Zm5.68,5.56c-.58.06-1.22.12-1.88.18V9.66h1.52V8.32h-8.36V9.66h1.54v5.96h-1.84L515.4,17a57.009,57.009,0,0,0,8.94-.56Zm-3.92,7.52V18.46h-1.64v5.62h12.28V22.74Zm15-4.9c2.86-.58,5.4-2.1,6.52-4.4,1.1,2.3,3.64,3.82,6.48,4.4l.66-1.34c-3.44-.6-6.32-2.82-6.32-5.76h5.76V9.42h-5.76V6.98H541V9.42h-5.78v1.32H541c0,2.94-2.88,5.16-6.32,5.76Zm-1.62,3v1.34h16.28V20.84ZM565.18,6.56v9.62h1.64V6.56Zm-9.92,10.5v7.18h11.56V17.06H565.2v2.2h-8.32v-2.2Zm1.62,3.48h8.32v2.38h-8.32Zm.3-13.14c-2.7,0-4.66,1.68-4.66,4.12,0,2.48,1.96,4.14,4.66,4.14,2.72,0,4.7-1.66,4.7-4.14C561.88,9.08,559.9,7.4,557.18,7.4Zm0,1.36a2.784,2.784,0,1,1-3.06,2.76A2.822,2.822,0,0,1,557.18,8.76Zm16.08-.48h-1.64V19.84h1.48a42.619,42.619,0,0,0,8.8-.84l-.18-1.4a42.382,42.382,0,0,1-8.46.84Zm10.3-1.74V24.46h1.64V6.54Zm7.74,3.08H598V8.26h-8.34V20.04h1.42a42.527,42.527,0,0,0,8.48-.64l-.18-1.36a43.6,43.6,0,0,1-8.08.6Zm14.36,4H602.7V6.54h-1.64V24.52h1.64V14.98h2.96Zm3.36,9.64a1.321,1.321,0,0,0,1.32-1.38,1.323,1.323,0,1,0-2.64,0A1.321,1.321,0,0,0,609.02,23.26ZM628,8.3h-4.32V6.48h-1.64V8.3H617.7V9.52H628Zm-7.78,4.72c0-.96,1.02-1.58,2.64-1.58,1.58,0,2.62.62,2.62,1.58,0,1-1.04,1.6-2.62,1.6C621.24,14.62,620.22,14.02,620.22,13.02Zm8.32,3.54a42.1,42.1,0,0,1-4.86.48V15.76c2.06-.22,3.36-1.2,3.36-2.74,0-1.7-1.68-2.74-4.18-2.74-2.52,0-4.2,1.04-4.2,2.74,0,1.54,1.32,2.54,3.38,2.74v1.36c-1.72.06-3.38.08-4.78.08l.18,1.32a66.764,66.764,0,0,0,11.22-.78Zm-7,3.08H619.9v4.44h11.98V22.74H621.54Zm9.7-6.84V6.54H629.6V20.58h1.64V14.16h2.62V12.8Zm17.62-1.62v2.4h-4.7v1.34h4.7v2.36h1.66V6.56h-1.66V9.84H644.8A10.291,10.291,0,0,0,645,7.9h-8.1V9.22h6.32c-.3,3.1-2.96,5.48-7.24,6.76l.66,1.3c3.86-1.12,6.58-3.22,7.74-6.1Zm-4.2,11.94c-2.64,0-4.32-.82-4.32-2.18,0-1.34,1.68-2.16,4.32-2.16s4.32.82,4.32,2.16C648.98,22.3,647.3,23.12,644.66,23.12Zm0-5.64c-3.62,0-5.94,1.3-5.94,3.46s2.32,3.46,5.94,3.46,5.94-1.3,5.94-3.46S648.28,17.48,644.66,17.48Zm24.2-10.92h-1.64V19.8h1.64Zm-3.68,9.46c-2.66-.82-4.54-2.94-4.54-5.3v-.46h4.06V8.94h-4.04V6.62h-1.64V8.94h-4.08v1.32h4.08v.46a6.163,6.163,0,0,1-4.5,5.64l.8,1.28a7.381,7.381,0,0,0,4.54-4.26,7.3,7.3,0,0,0,4.54,3.92Zm-6.22,6.72V18.58h-1.64v5.5H669.4V22.74Zm24.4-14.02h-4.52V6.56H677.2V8.72h-4.56v1.3h10.72Zm-8.02,5.68c0-1.24,1.08-2.06,2.68-2.06s2.68.82,2.68,2.06-1.08,2.04-2.68,2.04S675.34,15.64,675.34,14.4Zm3.5,3.28c2.06-.26,3.42-1.5,3.42-3.28,0-2.02-1.74-3.32-4.24-3.32s-4.24,1.3-4.24,3.32c0,1.78,1.36,3.02,3.42,3.28v1.96c-1.74.06-3.42.06-4.86.06l.22,1.38a66.213,66.213,0,0,0,11.2-.72l-.1-1.22a46.894,46.894,0,0,1-4.82.44Zm10.32-3.52h-2.8V6.54h-1.64V24.48h1.64V15.54h2.8ZM11.64,47.3a6.176,6.176,0,0,1-4.36-5.48V41.1h3.94V39.76H1.64V41.1h4v.72A6.517,6.517,0,0,1,1.12,47.7L1.98,49a7.6,7.6,0,0,0,4.5-4.48,7.434,7.434,0,0,0,4.34,4.06Zm-7.8,4.28H14.18V56.5h1.66V50.26h-12ZM14.18,38.54v4.68h-3.5v1.34h3.5v4.72h1.66V38.54Zm20,.02H32.54v13.1h1.64ZM21.48,44.2a2.933,2.933,0,0,1,3.06-2.98,3,3,0,1,1,0,6A2.942,2.942,0,0,1,21.48,44.2Zm7.76,0a4.414,4.414,0,0,0-4.7-4.4,4.426,4.426,0,1,0,0,8.84A4.434,4.434,0,0,0,29.24,44.2ZM24.28,54.74V50.32H22.64v5.76H34.72V54.74ZM43.04,55h8.04V53.48H48.14V40.32h-1.4a8.832,8.832,0,0,1-3.04,1.06v1.16h2.6V53.48H43.04Zm14.9.26c2.78,0,4.56-2.54,4.56-7.64,0-5.08-1.78-7.56-4.56-7.56-2.8,0-4.58,2.46-4.58,7.56S55.14,55.26,57.94,55.26Zm0-1.46c-1.68,0-2.8-1.86-2.8-6.18,0-4.28,1.12-6.1,2.8-6.1,1.66,0,2.78,1.82,2.78,6.1C60.72,51.94,59.6,53.8,57.94,53.8Zm11.1,1.46c2.78,0,4.56-2.54,4.56-7.64,0-5.08-1.78-7.56-4.56-7.56-2.8,0-4.58,2.46-4.58,7.56S66.24,55.26,69.04,55.26Zm0-1.46c-1.68,0-2.8-1.86-2.8-6.18,0-4.28,1.12-6.1,2.8-6.1,1.66,0,2.78,1.82,2.78,6.1C71.82,51.94,70.7,53.8,69.04,53.8Zm9.64-4.48c2.02,0,3.34-1.7,3.34-4.66,0-2.94-1.32-4.6-3.34-4.6-2,0-3.32,1.66-3.32,4.6C75.36,47.62,76.68,49.32,78.68,49.32Zm0-1.14c-1.14,0-1.94-1.18-1.94-3.52s.8-3.48,1.94-3.48c1.16,0,1.96,1.14,1.96,3.48S79.84,48.18,78.68,48.18Zm.44,7.08h1.22l8.1-15.2H87.2Zm9.78,0c2,0,3.32-1.68,3.32-4.64,0-2.94-1.32-4.6-3.32-4.6s-3.34,1.66-3.34,4.6C85.56,53.58,86.9,55.26,88.9,55.26Zm0-1.12c-1.16,0-1.94-1.18-1.94-3.52s.78-3.48,1.94-3.48c1.14,0,1.94,1.14,1.94,3.48S90.04,54.14,88.9,54.14Zm12.8-9.72c0-2.06,2.1-3.4,4.96-3.4s4.94,1.34,4.94,3.4-2.08,3.4-4.94,3.4S101.7,46.48,101.7,44.42Zm5.78,8.4V49.08c3.34-.24,5.68-2.02,5.68-4.66,0-2.86-2.72-4.7-6.5-4.7-3.8,0-6.54,1.84-6.54,4.7,0,2.64,2.36,4.42,5.7,4.66v3.74h-7.3v1.36h16.3V52.82ZM117.9,40.46v1.36h6.58c-.38,4.24-2.84,7.68-7.42,9.98l.9,1.28c5.8-2.9,8.14-7.52,8.14-12.62Zm15.72,5.36h-2.88V38.54H129.1V56.48h1.64v-9.3h2.88Zm12.84-.5a42.954,42.954,0,0,1-8.38.8V39.56h-1.64v7.92h1.46a45.923,45.923,0,0,0,8.8-.82Zm-8.4,5.86h10.36v5.34h1.64V49.84h-12Zm10.36-12.62V48.92h1.64V38.56Zm11.26,6.5.24,1.4,10.84-.58a37.278,37.278,0,0,1-.64,4.24l1.62.2a36.956,36.956,0,0,0,.76-8.34v-1.7H160.16v1.34h10.72v.36c0,.82,0,1.68-.04,2.62Zm6.5,7.64V48.04h-1.64V52.7h-6.32v1.34h16.22V52.7Zm24.74-7.18H180.38V43.6h9.96V42.36h-9.96V40.48h10.44V39.2H178.74v7.6h12.18ZM180.34,51.1H178.7v4.98h12.44V54.74h-10.8Zm-3.74-2.62V49.8h16.22V48.48Zm22.48,2.54c-1.44,0-2.34-1.82-2.34-4.76,0-2.88.9-4.7,2.34-4.7,1.4,0,2.32,1.82,2.32,4.7C201.4,49.2,200.48,51.02,199.08,51.02Zm6.06-5.5h-2.26c-.2-3.38-1.64-5.48-3.8-5.48-2.34,0-3.84,2.4-3.84,6.22,0,3.88,1.5,6.28,3.84,6.28,2.2,0,3.66-2.16,3.8-5.68h2.26V55.6h1.56V38.94h-1.56Zm3.56-6.98V56.48h1.56V38.54Zm23.6,9.68H221.64V45.38h10.08v-1.3H221.64V41.42h10.48V40.1H219.98v9.44H232.3Zm-14.42,4.6v1.34h16.28V52.82ZM250.9,38.54h-1.64v9.72h1.64Zm-8.86,1.58c1.7,0,2.88.7,2.88,1.74,0,1.06-1.18,1.78-2.88,1.78-1.72,0-2.88-.72-2.88-1.78C239.16,40.82,240.32,40.12,242.04,40.12Zm0,4.72c2.62,0,4.42-1.18,4.42-2.98,0-1.78-1.8-2.96-4.42-2.96-2.64,0-4.42,1.18-4.42,2.96C237.62,43.66,239.4,44.84,242.04,44.84ZM240.72,55V53.22H250.9V49.08h-7.88V47.1c1.7-.1,3.44-.26,5.12-.52l-.1-1.12a102.791,102.791,0,0,1-11.66.46l.2,1.3c1.44,0,3.1,0,4.8-.06v1.92h-2.32v1.26h10.22V52H239.1v4.28h12.46V55Zm19.94-5.88c2.7-.58,5.52-2.36,6.66-4.84,1.14,2.46,3.98,4.22,6.72,4.76l.66-1.32c-3.12-.5-6.54-2.96-6.54-5.82v-.38h5.94V40.18H260.52v1.34h5.94v.38c0,2.86-3.4,5.36-6.5,5.88Zm7.48,3.7V48.48H266.5v4.34h-7.32v1.36h16.28V52.82Zm20.4-5.52c-2.64-.88-4.5-3.06-4.5-5.46v-.72h4.06V39.8h-9.84v1.32h4.1v.72a6.423,6.423,0,0,1-4.54,5.82l.86,1.28a7.574,7.574,0,0,0,4.54-4.42,7.62,7.62,0,0,0,4.52,4.08Zm-8.24,4.36h10.36v4.82h1.64V50.34h-12Zm10.36-13.12V49.4h1.64V38.54Zm13.42,1.54c2.94,0,4.62.68,4.62,1.88s-1.68,1.88-4.62,1.88-4.62-.68-4.62-1.88S301.14,40.08,304.08,40.08Zm0,4.98c3.94,0,6.3-1.08,6.3-3.1s-2.36-3.12-6.3-3.12-6.3,1.1-6.3,3.12S300.14,45.06,304.08,45.06Zm-4.5,8.12h10.54V49.14h-12.2v1.24H308.5v1.6H297.98v4.3h12.68V55H299.58Zm-3.62-6.9V47.6H312.2V46.28ZM321.4,41.6h6.52V40.24h-8.16V52.08h1.38a41.425,41.425,0,0,0,8.16-.6l-.2-1.36a38.441,38.441,0,0,1-7.7.58ZM332,38.54v6.5h-5.14V46.4H332V56.52h1.64V38.54Zm9.7,12.42a2.474,2.474,0,0,1-2.38-2.74,2.4,2.4,0,1,1,4.76,0A2.486,2.486,0,0,1,341.7,50.96Zm0-6.82a3.818,3.818,0,0,0-3.84,4.08,3.848,3.848,0,1,0,7.68,0A3.818,3.818,0,0,0,341.7,44.14Zm.8-5.08h-1.62V41.6h-3.64v1.34h8.9V41.6H342.5Zm8.38-.54V46.1h-2.3V38.94h-1.54V55.6h1.54V47.44h2.3v9.02h1.58V38.52Zm19.44,8.74a39.891,39.891,0,0,1-7.72.52V45.1h6.24V43.8H362.6V41.3h6.56V39.98h-8.2v9.1h1.36a41.126,41.126,0,0,0,8.18-.52Zm-5.78,3.38H362.9v5.44h11.96V54.74H364.54Zm9.52-6.52V38.54h-1.64v13.3h1.64V45.48h2.64V44.12Zm14.66,3.14a39.891,39.891,0,0,1-7.72.52V45.1h6.24V43.8H381V41.3h6.56V39.98h-8.2v9.1h1.36a41.126,41.126,0,0,0,8.18-.52Zm-5.78,3.38H381.3v5.44h11.96V54.74H382.94Zm9.52-6.52V38.54h-1.64v13.3h1.64V45.48h2.64V44.12Zm9.74,7a2.77,2.77,0,1,1,2.82-2.76A2.69,2.69,0,0,1,402.2,51.12Zm0-6.9a4.137,4.137,0,1,0,4.38,4.14A4.089,4.089,0,0,0,402.2,44.22Zm.8-5.46h-1.64v2.66h-4.52v1.32h10.58V41.42H403Zm10.7,7.16h-2.94V38.56h-1.64V56.48h1.64V47.3h2.94Zm14.3-3.8a38.3,38.3,0,0,1-.68,8.12l1.64.18a40.439,40.439,0,0,0,.68-8.3V40.34H417.06v1.34H428Zm-4.7,10.5V46.2h-1.64v6.42h-6.3v1.34h16.22V52.62Zm17.44-11.9H439.1v11.1h1.14a33.191,33.191,0,0,0,6.42-.56l-.16-1.42a31.187,31.187,0,0,1-5.76.56Zm11.12-2.18v7.3h-2.54v-6.9h-1.54V55.56h1.54V47.2h2.54v9.26h1.58V38.54Zm21,8.88H470.2a29.613,29.613,0,0,0,.5-6.16V39.7H458.66v1.32H469.1v.24a26.519,26.519,0,0,1-.56,6.16h-11.9v1.34h7.24V56.5h1.66V48.76h7.32Zm15.28,1.74h1.66V38.56h-1.66v3.8h-3.9V43.7h3.9Zm-2.6-2.12a6.151,6.151,0,0,1-4.36-5.7V39.56h-1.64V41.4A6.537,6.537,0,0,1,475,47.52l.86,1.34a7.586,7.586,0,0,0,4.54-4.56,7.344,7.344,0,0,0,4.26,4.02Zm-1.66,8.12c-2.7,0-4.34-.78-4.34-2.08,0-1.32,1.64-2.1,4.34-2.1s4.34.78,4.34,2.1C488.22,54.38,486.58,55.16,483.88,55.16Zm0-5.46c-3.68,0-5.98,1.22-5.98,3.38,0,2.14,2.3,3.38,5.98,3.38s5.98-1.24,5.98-3.38C489.86,50.92,487.56,49.7,483.88,49.7Zm22.58-11.16V56.52h1.64V38.54Zm-7.82,1.38c-2.66,0-4.56,2.44-4.56,6.26s1.9,6.26,4.56,6.26,4.56-2.44,4.56-6.26S501.3,39.92,498.64,39.92Zm0,1.48c1.74,0,2.98,1.88,2.98,4.78,0,2.92-1.24,4.8-2.98,4.8-1.76,0-3-1.88-3-4.8C495.64,43.28,496.88,41.4,498.64,41.4Zm29.1,3.56H524.5V41.2h3.1V39.86h-4.72V46.3h4.86Zm-5.6-.36a17.958,17.958,0,0,1-3.2.38V41.2h3V39.86h-4.62V46.3h.82a17.829,17.829,0,0,0,4.16-.38Zm6.32,3.36a109.4,109.4,0,0,1-12.3.5l.24,1.38c1.58,0,3.34,0,5.18-.06V55.9h1.64V49.7c1.76-.1,3.56-.24,5.34-.52Zm1.08-9.4V56.48h1.64V38.56Zm9.96,12.42c-1.72,0-2.92-1.88-2.92-4.8,0-2.9,1.2-4.78,2.92-4.78,1.7,0,2.9,1.88,2.9,4.78C542.4,49.1,541.2,50.98,539.5,50.98Zm8.34-12.44v6.84h-3.9c-.26-3.36-2.02-5.46-4.44-5.46-2.62,0-4.48,2.44-4.48,6.26s1.86,6.26,4.48,6.26c2.5,0,4.28-2.2,4.44-5.72h3.9v9.8h1.64V38.54Zm15.72,6.36a42.072,42.072,0,0,1-7.96.76V39.38h-1.62v7.66h1.4a41.863,41.863,0,0,0,8.38-.8Zm1.84,10.02h-8.08V52.54h8.08Zm0-3.7h-8.08V48.84H555.7v7.4h11.32v-7.4H565.4Zm4.3-8.66h-2.66v-4h-1.66v9.32h1.66V43.92h2.66Zm4.56-2.28h-1.64V51.84h1.48a42.619,42.619,0,0,0,8.8-.84l-.18-1.4a42.382,42.382,0,0,1-8.46.84Zm10.3-1.74V56.46h1.64V38.54Zm7.74,3.08H599V40.26h-8.34V52.04h1.42a42.527,42.527,0,0,0,8.48-.64l-.18-1.36a43.6,43.6,0,0,1-8.08.6Zm14.36,4H603.7V38.54h-1.64V56.52h1.64V46.98h2.96Zm3.36,9.64a1.321,1.321,0,0,0,1.32-1.38,1.323,1.323,0,1,0-2.64,0A1.321,1.321,0,0,0,610.02,55.26Zm18.74-9.88a40.97,40.97,0,0,1-7,.72V39.28h-2.62V48.3h1.54a42.071,42.071,0,0,0,8.38-.74Zm-7.78,6.68h9.92v4.68h2.64V49.96H620.98Zm9.92-13.78V41.4h-4.46v2.14h4.46v5.6h2.64V38.28Zm16.26,7.1a40.97,40.97,0,0,1-7,.72V39.28h-2.62V48.3h1.54a42.071,42.071,0,0,0,8.38-.74Zm-7.78,6.68h9.92v4.68h2.64V49.96H639.38Zm9.92-13.78V41.4h-4.46v2.14h4.46v5.6h2.64V38.28Zm16.5,1.96h-4.12V38.28h-2.66v1.96h-4.08V42.3h10.84Zm-7.44,6.26c0-1,.82-1.54,2-1.54,1.16,0,2,.54,2,1.54,0,1.02-.84,1.56-2,1.56C659.18,48.06,658.36,47.52,658.36,46.5Zm6.52,0c0-2.08-1.88-3.54-4.52-3.54s-4.52,1.46-4.52,3.54c0,2.12,1.88,3.56,4.52,3.56S664.88,48.62,664.88,46.5Zm-4.68,4.56h-2.64V56.4H670.1V54.3h-9.9Zm9.24-7.14V38.3H666.8V52.08h2.64V46.1h2.44V43.92ZM16.14,70.32H13.5v9.42h2.64Zm-8,6.74H4.38V73.4H8.14Zm2.58-5.74H1.78v7.8h8.94ZM6.54,86.52v-1.1h9.5V83.6H6.54V82.54h9.72V80.56H3.92V88.5H16.58V86.52Zm18.7-13.34c1.36,0,2.3.64,2.3,1.8,0,1.12-.94,1.76-2.3,1.76-1.34,0-2.3-.64-2.3-1.76C22.94,73.82,23.9,73.18,25.24,73.18Zm0,5.72c2.78,0,4.82-1.64,4.82-3.92,0-2.32-2.04-3.94-4.82-3.94s-4.84,1.62-4.84,3.94C20.4,77.26,22.46,78.9,25.24,78.9Zm5.76.46a83.889,83.889,0,0,1-11.68.62l.3,2.16c1.3,0,2.8-.02,4.38-.08v6.1h2.64V81.9a43.062,43.062,0,0,0,4.52-.62Zm1.04-9.06V88.7h2.64V70.3Zm20.92-.02H50.3v9.26h2.66Zm-14.04.7v2.1H44.5c-.24,2.18-2.04,3.94-6.58,4.74l.92,2.12c5.82-1.2,8.6-3.92,8.6-8.96ZM43.36,86.5V85.3h9.6V80.32H40.68v2H50.3V83.4H40.7v5.14H53.42V86.5ZM68.68,70.28V88.76h2.64V70.28Zm-7.26,1.3c-2.78,0-4.84,2.52-4.84,6.56,0,4.06,2.06,6.6,4.84,6.6s4.84-2.54,4.84-6.6C66.26,74.1,64.2,71.58,61.42,71.58Zm0,2.38c1.36,0,2.3,1.46,2.3,4.18,0,2.74-.94,4.2-2.3,4.2s-2.3-1.46-2.3-4.2C59.12,75.42,60.06,73.96,61.42,73.96ZM78.6,82.5c-1,0-1.6-1.38-1.6-4.22,0-2.82.6-4.2,1.6-4.2,1.02,0,1.6,1.38,1.6,4.2C80.2,81.12,79.62,82.5,78.6,82.5Zm5.42-5.42H82.56c-.3-3.44-1.78-5.48-3.96-5.48-2.44,0-3.98,2.52-3.98,6.68,0,4.18,1.54,6.7,3.98,6.7,2.24,0,3.74-2.16,3.98-5.76h1.44V87.9h2.46V70.6H84.02Zm3.74-6.8V88.7h2.5V70.28Zm23.96,6.18a22.586,22.586,0,0,0,.34-4.4V70.98H99.3v2.06h10.12a18.905,18.905,0,0,1-.32,3.2Zm-9.8,8.88h10.16V80.38H99.26v2.04h10.18v1.12H99.28v5.04h13.26V86.54H101.92Zm4.3-8.12V74.56h-2.64v2.66H97.44v2.06h16.58V77.22Zm16.34,1.68h-3.62V76.28h3.62Zm2.6-7.28h-2.6v2.62h-3.62V71.62h-2.6v9.36h8.82Zm-4.1,10.9h-2.64V88.4h12.54V86.3h-9.9Zm9.24-7.02V70.3h-2.64V83.86h2.64v-6.2h2.44V75.5Zm8.04,7c-1,0-1.6-1.38-1.6-4.22,0-2.82.6-4.2,1.6-4.2,1.02,0,1.6,1.38,1.6,4.2C139.94,81.12,139.36,82.5,138.34,82.5Zm5.42-5.42H142.3c-.3-3.44-1.78-5.48-3.96-5.48-2.44,0-3.98,2.52-3.98,6.68,0,4.18,1.54,6.7,3.98,6.7,2.24,0,3.74-2.16,3.98-5.76h1.44V87.9h2.46V70.6h-2.46Zm3.74-6.8V88.7H150V70.28Zm12.02,1.44h-2.66v2.66c0,3.5-1.4,7.08-4.52,8.52l1.64,2.12a8.865,8.865,0,0,0,4.24-5.32,8.273,8.273,0,0,0,4.12,5l1.56-2.1c-3.04-1.36-4.38-4.74-4.38-8.22Zm5.9-1.44v5.78h-3.54v2.12h3.54V88.76h2.64V70.28Zm20.86,2.74h-4.02v-2.4h-2.64v2.4h-4.08v2.14h10.74Zm-5.36,9.72a2.186,2.186,0,1,1,2.02-2.18A1.98,1.98,0,0,1,180.92,82.74Zm0-6.58a4.4,4.4,0,1,0,4.44,4.4A4.295,4.295,0,0,0,180.92,76.16Zm7.44-5.86v7.24h-2.42v2.14h2.42v9.04H191V70.3Zm8.44,13.9h9.9v4.54h2.64V82.12H196.8Zm4.04-5.84h-3.5V75.98h3.5Zm5.86-8.04V74.8h-3.28V71.36h-2.58v2.6h-3.5V71.38h-2.62v9.1h8.7V76.92h3.28V81.3h2.64v-11Zm12.76,3.92h3.8V72.06H212.94v2.18h3.84v1.02c0,3.14-1.5,6.52-4.58,7.9l1.5,2.1a8.8,8.8,0,0,0,4.46-5.4,8.261,8.261,0,0,0,4.42,4.94l1.44-2.08a7.889,7.889,0,0,1-4.56-7.46Zm5.5-3.94V88.72h2.64V70.3Zm22.42,6.76H239.8v-1.9h7.58Zm2.6-6.06h-2.6v2.1H239.8V71h-2.62v8.16h12.8Zm1.98,9.9H235.28V83h6.96v5.74h2.64V83h7.08Zm13.64-4.5h-7.18V74.74h7.18Zm2.62-5.52H265.6v1.88h-7.18V70.88H255.8v7.58h12.42Zm-9.98,12.46H255.6V88.4h12.92V86.3H258.24Zm-4.58-3.6v2.08h7.26v2.9h2.64v-2.9h6.8V79.74Zm18.86-7.56V74.3H275c-.14,3.7-.86,6.36-3.3,9.06l2.06,1.5c3.28-3.64,3.74-7.6,3.74-12.68Zm5.62,0V74.3h1.96c-.14,4.1-.8,7.18-3.24,10.26l2.08,1.46c3.22-3.98,3.64-8.52,3.64-13.84ZM289.1,77.5h-2.38V70.28h-2.66V88.7h2.66V79.68h2.38Zm8.5-3.26h3.8V72.06H291.08v2.18h3.84v1.02c0,3.14-1.5,6.52-4.58,7.9l1.5,2.1a8.8,8.8,0,0,0,4.46-5.4,8.261,8.261,0,0,0,4.42,4.94l1.44-2.08a7.889,7.889,0,0,1-4.56-7.46Zm5.5-3.94V88.72h2.64V70.3Zm20.62,4.98H313.58V70.96h-2.64v6.42h12.78Zm-10.3,7.56h-2.66v5.48h13.06v-2.1h-10.4Zm-4.54-3.58v2.12h16.68V79.26Zm32.62.52a10.532,10.532,0,0,0,.12-1.64,10.051,10.051,0,0,0-.18-1.96h3.2v3.6Zm-4.64,2.56c-1.34,0-2.26-1.46-2.26-4.2,0-2.72.92-4.18,2.26-4.18,1.36,0,2.28,1.46,2.28,4.18C339.14,80.88,338.22,82.34,336.86,82.34Zm7.78-12.06v3.78h-3.92a4.267,4.267,0,0,0-3.86-2.48c-2.74,0-4.76,2.52-4.76,6.56,0,4.06,2.02,6.6,4.76,6.6a4.315,4.315,0,0,0,4.02-2.82h3.76v6.84h2.64V70.28Zm13.88,2.74c2.4,0,3.94.72,3.94,2.02,0,1.32-1.54,2.02-3.94,2.02-2.42,0-3.96-.7-3.96-2.02C354.56,73.74,356.1,73.02,358.52,73.02Zm0,6.14c3.92,0,6.66-1.6,6.66-4.12,0-2.5-2.74-4.12-6.66-4.12-3.94,0-6.66,1.62-6.66,4.12C351.86,77.56,354.58,79.16,358.52,79.16Zm8.38,1.38H350.22v2.14H354V88.7h2.66V82.68h3.7V88.7h2.68V82.68h3.86Zm13.84,5.94h-7.4V85.3h7.4Zm0-3.12h-7.4V82.2h-2.62v6.3h12.64V82.2h-2.62Zm-2.46-3.92V78.36h5.36v-2H373.3v-1h9.96V70.58h-12.6v2h10v.92H370.7v4.86h4.94v1.08h-7.02v2.08H385.3V79.44Zm23.08,3.02a42.623,42.623,0,0,0,.74-8.82V71.88H388.72v2.1h10.74a38.486,38.486,0,0,1-.74,8.18Zm-5.8,1.92V78.04h-2.64v6.34h-5.88V86.5H403.7V84.38Zm10.68,6.88a5.023,5.023,0,0,0,3.78-4.92c0-1.82-.76-2.9-2.12-2.9a1.769,1.769,0,0,0-1.9,1.74,1.727,1.727,0,0,0,1.84,1.74h.18c.02,1.12-.84,2.16-2.4,2.74Zm22.32-14.7h-7.58V73.28h7.58Zm2.58-5.36H418.38v7.44h12.76Zm2,9.4H416.46v2.1h6.96v6.02h2.64V82.7h7.08Zm13.76-6.96h-9.96V78.5h12.92v-2H439.54v-1h9.96V70.72H436.9v2h10ZM441.68,84.4h3.02v2h-3.02Zm5.62,0h2.46v-2H436.64v2h2.44v2h-2.62v2h13.48v-2H447.3Zm-12.46-4.96v2h16.7v-2Zm27.9,2.9c-1.38,0-2.3-1.46-2.3-4.2,0-2.72.92-4.18,2.3-4.18,1.36,0,2.3,1.46,2.3,4.18C465.04,80.88,464.1,82.34,462.74,82.34Zm0-10.76c-2.8,0-4.84,2.52-4.84,6.56,0,4.06,2.04,6.6,4.84,6.6,2.78,0,4.84-2.54,4.84-6.6C467.58,74.1,465.52,71.58,462.74,71.58Zm12.16,5.66h-2.68V70.3h-2.64V88.72h2.64v-9.3h2.68Zm4.36,1.98h4.38V72.08h-6.96V74.2h4.42v2.94h-4.4v7.5H478a39.255,39.255,0,0,0,6.58-.44l-.2-2.14a38.921,38.921,0,0,1-5.12.42Zm10.24-8.94v6.96h-1.66V70.62h-2.46V87.84h2.46V79.36h1.66V88.7H492V70.28Zm14.74,14.26V81.8h5.58V79.68H499.14V77.62H509.4V71.48H496.5v2.1h10.3v1.98H496.52V81.8h5.08v2.74h-7V86.7h16.68V84.54Zm23.6-9.26H517.7V70.96h-2.64v6.42h12.78Zm-10.3,7.56h-2.66v5.48h13.06v-2.1h-10.4ZM513,79.26v2.12h16.68V79.26Zm31.22,7.54c-2.54,0-3.72-.34-3.72-1.1s1.18-1.08,3.72-1.08c2.56,0,3.74.32,3.74,1.08S546.78,86.8,544.22,86.8Zm0-4.12c-4.04,0-6.38,1.04-6.38,3.02,0,1.96,2.34,3.02,6.38,3.02,4.06,0,6.4-1.06,6.4-3.02C550.62,83.72,548.28,82.68,544.22,82.68Zm1.34-2.88V78.66h5.26v-2h-10.2v-1h9.64V73.74h-9.64v-.96h10.06v-2H538v7.88h4.92V79.8h-7v2.06h16.66V79.8Zm21.4-9.52V88.76h2.64V70.28Zm-7.26,1.3c-2.78,0-4.84,2.52-4.84,6.56,0,4.06,2.06,6.6,4.84,6.6s4.84-2.54,4.84-6.6C564.54,74.1,562.48,71.58,559.7,71.58Zm0,2.38c1.36,0,2.3,1.46,2.3,4.18,0,2.74-.94,4.2-2.3,4.2s-2.3-1.46-2.3-4.2C557.4,75.42,558.34,73.96,559.7,73.96Zm19.2,3.68c3.46-.32,5.72-1.62,6.7-3.36.96,1.76,3.24,3.04,6.7,3.36l.92-2.06c-3.38-.3-5.16-1.44-5.66-2.64h4.86v-2.1H578.8v2.1h4.84c-.52,1.2-2.3,2.34-5.66,2.64Zm10.36,8.8h-7.42v-1.4h7.42Zm0-3.38h-7.42v-1.4h-2.62V88.5h12.66V81.66h-2.62ZM586.9,78.7V76.58h-2.64V78.7h-6.98v2.08h16.64V78.7Zm13.72,3.64c-1.38,0-2.3-1.46-2.3-4.2,0-2.72.92-4.18,2.3-4.18,1.36,0,2.3,1.46,2.3,4.18C602.92,80.88,601.98,82.34,600.62,82.34Zm0-10.76c-2.8,0-4.84,2.52-4.84,6.56,0,4.06,2.04,6.6,4.84,6.6,2.78,0,4.84-2.54,4.84-6.6C605.46,74.1,603.4,71.58,600.62,71.58Zm12.16,5.66H610.1V70.3h-2.64V88.72h2.64v-9.3h2.68ZM621,74.2h3.7V72.06H614.58V74.2h3.76v.64c0,3.4-1.46,7-4.48,8.5l1.68,2.02a9.277,9.277,0,0,0,4.2-5.8,9.31,9.31,0,0,0,4.22,5.34l1.52-2.04c-3-1.56-4.48-5.1-4.48-8.02Zm5.9-3.9v5.04h-2.94v2.18h2.94V79.2h-2.94v2.18h2.94v7.34h2.64V70.3Zm16.88,6.82h-3.62V75.28h3.62Zm2.6-6.02h-2.6v2.2h-3.62V71.1h-2.6v8.08h8.82ZM642,85.38h9.52v-5H639.36v2h9.56V83.5h-9.54v5.08h12.68V86.54H642Zm9.52-11.52V70.3h-2.64v9.36h2.64V76h2.42V73.86Zm5.74,10.92h10.16v3.96h2.64V82.68h-12.8Zm2.8-11.7h7.3v2.38h-7.3Zm4.98,6.18V77.54h4.92V71.02h-12.5v6.52h4.94v1.72h-6.98v2.1h16.64v-2.1ZM12.96,109.06H5.38v-1.9h7.58Zm2.6-6.06h-2.6v2.1H5.38V103H2.76v8.16h12.8Zm1.98,9.9H.86V115H7.82v5.74h2.64V115h7.08ZM24,114.16H21.36v6.24H34.5v-2.1H24Zm9.58-3.7a27.819,27.819,0,0,0,.42-5.54v-1.6H21.32v2.1H31.4a24.679,24.679,0,0,1-.46,5.04H19.26v2.1H35.94v-2.1Zm8.22,4.04c-1,0-1.6-1.38-1.6-4.22,0-2.82.6-4.2,1.6-4.2,1.02,0,1.6,1.38,1.6,4.2C43.4,113.12,42.82,114.5,41.8,114.5Zm5.42-5.42H45.76c-.3-3.44-1.78-5.48-3.96-5.48-2.44,0-3.98,2.52-3.98,6.68,0,4.18,1.54,6.7,3.98,6.7,2.24,0,3.74-2.16,3.98-5.76h1.44v8.68h2.46V102.6H47.22Zm3.74-6.8V120.7h2.5V102.28Zm10.66,1.92v2.1h6.14c-.38,4.08-2.42,6.96-7.12,9.22l1.38,2.08c6.54-3.16,8.44-7.76,8.44-13.4Zm11.66-1.92V120.7h2.66V102.28Zm16.7,8.38c-2.9-.86-4.16-2.92-4.2-5.02h3.6v-2.12H79.42v2.12h3.66a5.963,5.963,0,0,1-4.34,5.64l1.32,2.06a7.175,7.175,0,0,0,4.44-3.98,6.79,6.79,0,0,0,4.22,3.34Zm-2.5,8.04c-2.36,0-3.62-.5-3.62-1.54,0-1.06,1.26-1.56,3.62-1.56,2.34,0,3.6.5,3.6,1.56C91.08,118.2,89.82,118.7,87.48,118.7Zm0-5.14c-3.84,0-6.24,1.34-6.24,3.6,0,2.24,2.4,3.56,6.24,3.56,3.82,0,6.22-1.32,6.22-3.56C93.7,114.9,91.3,113.56,87.48,113.56Zm6.02-7.02V102.3H90.86v10.94H93.5V108.7h2.44v-2.16Zm16.52-4.26v18.48h2.64V102.28Zm-7.26,1.3c-2.78,0-4.84,2.52-4.84,6.56,0,4.06,2.06,6.6,4.84,6.6s4.84-2.54,4.84-6.6C107.6,106.1,105.54,103.58,102.76,103.58Zm0,2.38c1.36,0,2.3,1.46,2.3,4.18,0,2.74-.94,4.2-2.3,4.2s-2.3-1.46-2.3-4.2C100.46,107.42,101.4,105.96,102.76,105.96Zm30.34,5.54h2.64v-9.22H133.1v3.92h-3.22v2.1h3.22Zm-11.48-8.52v2.1h5.22c-.34,2.18-2.26,3.94-6.28,4.84l.88,2.06c5.4-1.28,8.24-4.2,8.24-9Zm4.64,15.48V117.3h9.48v-5.1H123.6v2.08h9.5v1.06h-9.48v5.2h12.5v-2.08Zm19.36-11.06h3.68v-2.1h-3.68v-2.56h-2.64v2.56h-3.72v2.1h3.72v.64a7.973,7.973,0,0,1-4.34,7.28l1.4,2.02a8.406,8.406,0,0,0,4.3-5.02,8.244,8.244,0,0,0,4.28,4.76l1.4-2.04a7.638,7.638,0,0,1-4.4-7Zm5.9-5.1v5.52h-3.1v2.14h3.1v1.66h-3.1v2.14h3.1v7h2.64V102.3Zm12.74,3.94h3.8v-2.18H157.74v2.18h3.84v1.02c0,3.14-1.5,6.52-4.58,7.9l1.5,2.1a8.8,8.8,0,0,0,4.46-5.4,8.261,8.261,0,0,0,4.42,4.94l1.44-2.08a7.889,7.889,0,0,1-4.56-7.46Zm5.5-3.94v18.42h2.64V102.3Zm20.62,4.98H180.24v-4.32H177.6v6.42h12.78Zm-10.3,7.56h-2.66v5.48h13.06v-2.1h-10.4Zm-4.54-3.58v2.12h16.68v-2.12Zm33.86-2.02a5.21,5.21,0,0,1-4.18-5.18v-1.1h-2.68v1.16a5.584,5.584,0,0,1-4.3,5.54l1.26,2.1a7.035,7.035,0,0,0,4.44-3.84,6.507,6.507,0,0,0,4.12,3.38Zm-5.94,8.2h9.52v-4.96H200.82v2.02h9.56v1.04h-9.54v5.04h12.68v-2.04H203.46Zm9.52-11.54v-3.58h-2.64v9.44h2.64v-3.72h2.42V105.9Zm16.24,5.1c-2.06-1.12-2.68-3.3-2.68-5.4h1.82v-2.1h-5.2v2.1h.88a7.4,7.4,0,0,1-1.2,4.42,7.583,7.583,0,0,1-1.2-4.42h.92v-2.1H217.2v2.1h1.96c0,2.08-.64,4.28-2.66,5.4l1.36,1.88a5.418,5.418,0,0,0,2.54-3.1,5.8,5.8,0,0,0,2.44,3.3,5.594,5.594,0,0,0,2.44-3.32,5.526,5.526,0,0,0,2.58,3.12Zm-10.16,5.16H229.3v4.58h2.64v-6.68H219.06Zm14.72-9.46h-1.84v-4.4H229.3v10.98h2.64v-4.42h1.84Zm7.4,2.64.32,2.14,10.52-.54a29.349,29.349,0,0,1-.68,4.08l2.6.26a38.6,38.6,0,0,0,.86-9.22v-2.14H241.7v2.1h10.5v.04c0,.94,0,1.9-.04,2.92Zm-1.34,7.04v2.16h16.64v-2.16Zm30.5,2.1h-7.4V117.3h7.4Zm0-3.12h-7.4V114.2h-2.62v6.3h12.64v-6.3h-2.62Zm-2.46-3.92v-1.08h5.36v-2H262.9v-1h9.96v-4.78h-12.6v2h10v.92H260.3v4.86h4.94v1.08h-7.02v2.08H274.9v-2.08Zm19.6-7.2h-4.12v-1.96H280.7v1.96h-4.08v2.06h10.84Zm-7.44,6.26c0-1,.82-1.54,2-1.54,1.16,0,2,.54,2,1.54,0,1.02-.84,1.56-2,1.56C280.86,112.06,280.04,111.52,280.04,110.5Zm6.52,0c0-2.08-1.88-3.54-4.52-3.54s-4.52,1.46-4.52,3.54c0,2.12,1.88,3.56,4.52,3.56S286.56,112.62,286.56,110.5Zm-4.68,4.56h-2.64v5.34h12.54v-2.1h-9.9Zm9.24-7.14V102.3h-2.64v13.78h2.64V110.1h2.44v-2.18Zm11.48,3.4h3.62v-2.04H302.6v-2.86h4.32v-2.1H300.1v12.34h1.26a37.659,37.659,0,0,0,6.48-.38l-.22-2.1a32.735,32.735,0,0,1-5.02.36Zm6.46-2.32h-2v2.14h2v8.76h2.46V102.64h-2.46Zm3.82-6.72V120.7h2.5V102.28Zm17.7,0v18.48h2.64V102.28Zm-7.26,1.3c-2.78,0-4.84,2.52-4.84,6.56,0,4.06,2.06,6.6,4.84,6.6s4.84-2.54,4.84-6.6C328.16,106.1,326.1,103.58,323.32,103.58Zm0,2.38c1.36,0,2.3,1.46,2.3,4.18,0,2.74-.94,4.2-2.3,4.2s-2.3-1.46-2.3-4.2C321.02,107.42,321.96,105.96,323.32,105.96Zm17.54.06h1.82v8.26c-.62.04-1.22.06-1.82.08Zm4.36,0h1.72v-2.1H336.78v2.1h1.52v8.4h-2.02l.28,2.14a67.142,67.142,0,0,0,11-.72l-.16-1.92c-.7.08-1.44.16-2.18.2Zm3.96-3.72v6.68h-2.74v2.14h2.74v9.62h2.64V102.3Zm20.48,8.5H359.34v-4.84h10.18v-2.14H356.7v9.08h12.96Zm-14.9,5.56v2.16h16.68v-2.16ZM393,102.3h-2.66v12.44H393Zm-10.52,3.52h1.94v4.72c-.64.04-1.3.06-1.94.08Zm6.62,4.32c-.7.1-1.4.16-2.14.22v-4.54h1.44v-2.1h-9.92v2.1h1.46v4.86h-1.92l.28,2.16a62.114,62.114,0,0,0,10.98-.8Zm-.98,3.62H385.4v.28c0,2-1.84,4.02-5.78,4.56l.98,2.06c2.98-.46,5.08-1.74,6.16-3.5,1.08,1.76,3.18,3.04,6.14,3.5l1-2.06c-3.94-.54-5.78-2.56-5.78-4.56Zm20.62-11.46v9.9h2.66v-9.9ZM399.16,113v7.5H411.4V113h-2.62v1.72h-7V113Zm2.62,3.74h7v1.66h-7Zm-.4-13.68c-2.86,0-5.02,1.82-5.02,4.34,0,2.54,2.16,4.36,5.02,4.36s5-1.82,5-4.36C406.38,104.88,404.24,103.06,401.38,103.06Zm0,2.18a2.185,2.185,0,1,1-2.44,2.16A2.176,2.176,0,0,1,401.38,105.24Zm16.7-1.2h-2.62v12.14h1.64a43.686,43.686,0,0,0,9-.86l-.28-2.2a45.022,45.022,0,0,1-7.74.8Zm9.16-1.76V120.7h2.64V102.28Zm9,3.86h5.96V104h-8.58v12.34h1.56a45.858,45.858,0,0,0,8.5-.6l-.26-2.18a45.787,45.787,0,0,1-7.18.58ZM450,109.1h-2.68v-6.8h-2.64v18.46h2.64v-9.48H450Zm3.68,10.18a1.923,1.923,0,1,0-1.82-1.92A1.842,1.842,0,0,0,453.68,119.28Zm13.58-4.3c-1.74,0-2.96-1.88-2.96-4.8,0-2.9,1.22-4.78,2.96-4.78,1.72,0,2.94,1.88,2.94,4.78C470.2,113.1,468.98,114.98,467.26,114.98Zm0-11.06c-2.64,0-4.52,2.44-4.52,6.26s1.88,6.26,4.52,6.26,4.5-2.44,4.5-6.26S469.9,103.92,467.26,103.92Zm11.98,5.78h-2.96v-7.14h-1.64v17.92h1.64v-9.4h2.96Zm8-5.6h-1.62v3.22a9.425,9.425,0,0,1-4.82,8.1l1,1.34a9.969,9.969,0,0,0,4.64-6.02,9.742,9.742,0,0,0,4.62,5.68l.98-1.32a8.923,8.923,0,0,1-4.8-7.78Zm6.68-1.56v17.98h1.64V102.54Zm10.14,12.44c-1.74,0-2.96-1.88-2.96-4.8,0-2.9,1.22-4.78,2.96-4.78,1.72,0,2.94,1.88,2.94,4.78C507,113.1,505.78,114.98,504.06,114.98Zm0-11.06c-2.64,0-4.52,2.44-4.52,6.26s1.88,6.26,4.52,6.26,4.5-2.44,4.5-6.26S506.7,103.92,504.06,103.92Zm11.98,5.78h-2.96v-7.14h-1.64v17.92h1.64v-9.4h2.96Zm16.36-7.14h-1.64v13.1h1.64Zm-12.7,5.64a3.081,3.081,0,1,1,3.06,3.02A2.933,2.933,0,0,1,519.7,108.2Zm7.76,0a4.687,4.687,0,1,0-4.7,4.44A4.414,4.414,0,0,0,527.46,108.2Zm-4.96,10.54v-4.42h-1.64v5.76h12.08v-1.34Zm23.28-11.54h3.32v-1.36h-3.3v-2.66h-1.58v2.66H540.9v1.36h3.32v.86c0,2.94-1.38,6.08-3.8,7.52l.96,1.22a8.837,8.837,0,0,0,3.64-5.34,8.38,8.38,0,0,0,3.68,4.96l.94-1.24a8.151,8.151,0,0,1-3.86-7.12Zm4.84,2.42h-2.74v1.36h2.74v8.56h1.56V102.96h-1.56Zm3.6-7.08v17.92h1.58V102.54Zm17.86,7.8h-3.04v1.34h3.04v2.44h1.66V102.54h-1.66v4.32h-3.02v1.32h3.02Zm-3.04-5.82h-4.12v-2.14h-1.64v2.14H559v1.32h10.04Zm-7.48,5.56c0-1.24,1.02-2.06,2.52-2.06s2.52.82,2.52,2.06c0,1.26-1.02,2.08-2.52,2.08S561.56,111.34,561.56,110.08Zm6.58,0c0-2-1.68-3.32-4.06-3.32-2.4,0-4.06,1.32-4.06,3.32,0,2.02,1.66,3.34,4.06,3.34C566.46,113.42,568.14,112.1,568.14,110.08Zm-.28,9.12c-2.64,0-4.28-.66-4.28-1.8,0-1.16,1.64-1.8,4.28-1.8s4.26.64,4.26,1.8C572.12,118.54,570.5,119.2,567.86,119.2Zm0-4.86c-3.72,0-5.98,1.1-5.98,3.06,0,1.94,2.26,3.06,5.98,3.06,3.7,0,5.96-1.12,5.96-3.06C573.82,115.44,571.56,114.34,567.86,114.34Zm13.56.68c-1.44,0-2.34-1.82-2.34-4.76,0-2.88.9-4.7,2.34-4.7,1.4,0,2.32,1.82,2.32,4.7C583.74,113.2,582.82,115.02,581.42,115.02Zm6.06-5.5h-2.26c-.2-3.38-1.64-5.48-3.8-5.48-2.34,0-3.84,2.4-3.84,6.22,0,3.88,1.5,6.28,3.84,6.28,2.2,0,3.66-2.16,3.8-5.68h2.26v8.74h1.56V102.94h-1.56Zm3.56-6.98v17.94h1.56V102.54Zm23.06,7a24.674,24.674,0,0,0,.52-5.44v-.78h-6.04v1.34h4.44a24.876,24.876,0,0,1-.5,4.7Zm-7.82.02a17.739,17.739,0,0,0,.82-5.6v-.64h-5.44v1.34h3.84a18.046,18.046,0,0,1-.82,4.68Zm-4.26,6.1h10.76v4.74h1.64v-6.08h-12.4Zm7.48-4.58v-3.62h-1.62v3.62h-7.6v1.32h16.16v-1.32Zm21-.96h-5.04v-5.06h5.04Zm1.6-6.36h-8.24v7.68h8.24Zm5.24,11.4v-1.32H625.62v1.32h5c-.2,1.92-2.74,3.56-5.7,4l.6,1.26c2.66-.42,4.96-1.7,5.98-3.52,1.02,1.8,3.32,3.1,5.92,3.54l.62-1.26c-2.92-.46-5.5-2.14-5.7-4.02Zm-.3-8.32v-4.3H635.4v10.24h1.64V108.2h2.66v-1.36Zm5.98,4.08c2.94-.32,5.52-1.46,6.6-3.32,1.1,1.86,3.64,3,6.58,3.32l.54-1.26c-3.34-.34-6.06-1.8-6.22-3.9h5.56v-1.3h-5.62v-1.94h-1.64v1.94h-5.64v1.3h5.56c-.16,2.1-2.88,3.56-6.24,3.9Zm2.18,4.22h-1.64v4.94h12.4v-1.34H645.2ZM641.48,112v1.34h7.46v3.52h1.64v-3.52h7.18V112Zm-626,28.04H4.74V136.5H15.3v-1.32H3.1v6.18H15.48Zm-5.44,5.86H8.36v.58c0,2.36-2.76,4.14-6.04,4.62l.62,1.3c2.74-.46,5.16-1.74,6.26-3.68,1.08,1.94,3.5,3.22,6.22,3.68l.64-1.3c-3.28-.48-6.02-2.26-6.02-4.62Zm-8.98-2.7v1.34H17.3V143.2Zm29.04-6.46H25.62v-2.2H23.98v2.2H19.52v1.32H30.1Zm-8.02,5.64c0-1.24,1.1-2.04,2.72-2.04s2.74.8,2.74,2.04c0,1.26-1.12,2.06-2.74,2.06S22.08,143.64,22.08,142.38Zm7.02,0c0-2-1.76-3.32-4.3-3.32s-4.28,1.32-4.28,3.32c0,2.02,1.74,3.34,4.28,3.34S29.1,144.4,29.1,142.38Zm-5.24,4.56H22.22v5.14H34.18v-1.34H23.86Zm9.52-6.48v-5.92H31.74V148h1.64v-6.16h2.64v-1.38Zm22-5.92v17.98h1.64V134.54Zm-7.82,1.38c-2.66,0-4.56,2.44-4.56,6.26s1.9,6.26,4.56,6.26,4.56-2.44,4.56-6.26S50.22,135.92,47.56,135.92Zm0,1.48c1.74,0,2.98,1.88,2.98,4.78,0,2.92-1.24,4.8-2.98,4.8-1.76,0-3-1.88-3-4.8C44.56,139.28,45.8,137.4,47.56,137.4Zm23.54,5.58a6.09,6.09,0,0,1-4.34-5.54v-1.98H65.12v1.84a6.564,6.564,0,0,1-4.46,6.16l.86,1.3a7.5,7.5,0,0,0,4.44-4.54,7.529,7.529,0,0,0,4.28,4.04Zm-2.14,8.2c-2.66,0-4.28-.74-4.28-1.98,0-1.26,1.62-2,4.28-2,2.64,0,4.26.74,4.26,2C73.22,150.44,71.6,151.18,68.96,151.18Zm0-5.26c-3.66,0-5.92,1.18-5.92,3.28,0,2.08,2.26,3.26,5.92,3.26,3.64,0,5.9-1.18,5.9-3.26C74.86,147.1,72.6,145.92,68.96,145.92Zm5.7-6.74v-4.62H73.02v10.86h1.64v-4.88h2.66v-1.36Zm15.06,4.12a6.176,6.176,0,0,1-4.36-5.48v-.72H89.3v-1.34H79.72v1.34h4v.72a6.517,6.517,0,0,1-4.52,5.88l.86,1.3a7.6,7.6,0,0,0,4.5-4.48,7.434,7.434,0,0,0,4.34,4.06Zm-7.8,4.28H92.26v4.92h1.66v-6.24h-12Zm10.34-13.04v4.68h-3.5v1.34h3.5v4.72h1.66V134.54Zm20,.02h-1.64v13.1h1.64Zm-12.7,5.64a3.081,3.081,0,1,1,3.06,3.02A2.933,2.933,0,0,1,99.56,140.2Zm7.76,0a4.686,4.686,0,1,0-4.7,4.44A4.414,4.414,0,0,0,107.32,140.2Zm-4.96,10.54v-4.42h-1.64v5.76H112.8v-1.34Zm32.78-16.18H133.5v12.02h1.64Zm-10.56,2.88h2.92v5.4c-.98.04-1.98.08-2.92.1Zm7.14,5.04c-.86.12-1.74.18-2.64.26v-5.3h1.76V136.1h-9.62v1.34h1.76v5.52c-.8.02-1.56.02-2.24.02l.16,1.38a68.977,68.977,0,0,0,10.94-.68Zm-1.56,3.24h-1.68v.34c0,2.56-2.8,4.52-6,5.06l.66,1.28c2.68-.52,5.12-1.92,6.18-4,1.06,2.08,3.48,3.48,6.18,4l.66-1.28c-3.22-.54-6-2.5-6-5.06Zm16.76-9.64c2.94,0,4.62.68,4.62,1.88s-1.68,1.88-4.62,1.88-4.62-.68-4.62-1.88S143.98,136.08,146.92,136.08Zm0,4.98c3.94,0,6.3-1.08,6.3-3.1s-2.36-3.12-6.3-3.12-6.3,1.1-6.3,3.12S142.98,141.06,146.92,141.06Zm-4.5,8.12h10.54v-4.04h-12.2v1.24h10.58v1.6H140.82v4.3H153.5V151H142.42Zm-3.62-6.9v1.32h16.24v-1.32Zm29.3-4.54h4.22v-1.36H162.3v1.36h4.16v2.28a9.175,9.175,0,0,1-4.76,7.7l.96,1.32a10.06,10.06,0,0,0,4.62-5.92,9.477,9.477,0,0,0,4.7,5.48l.92-1.32a8.353,8.353,0,0,1-4.8-7.26Zm6.64-3.18v17.92h1.64V134.56Zm20.08,0h-1.64v13.02h1.64ZM191.24,142a40.164,40.164,0,0,1-8.38.78v-6.9H181.2v8.28h1.46a43,43,0,0,0,8.8-.8Zm-6.5,8.74v-4.46H183.1v5.8h12.26v-1.34Zm29.58-9.4h2.22v6.78h1.58V134.56h-1.58V140h-2.22v-5.12h-1.54V147.5h1.54Zm-8.08-3.68h2.3v5.84c-.76.04-1.56.06-2.3.08Zm5.68,5.56c-.58.06-1.22.12-1.88.18v-5.74h1.52v-1.34H203.2v1.34h1.54v5.96H202.9l.18,1.38a57.01,57.01,0,0,0,8.94-.56ZM208,150.74v-4.28h-1.64v5.62h12.28v-1.34Zm15-4.9c2.86-.58,5.4-2.1,6.52-4.4,1.1,2.3,3.64,3.82,6.48,4.4l.66-1.34c-3.44-.6-6.32-2.82-6.32-5.76h5.76v-1.32h-5.76v-2.44h-1.66v2.44H222.9v1.32h5.78c0,2.94-2.88,5.16-6.32,5.76Zm-1.62,3v1.34h16.28v-1.34Zm27.34.08v-3.38h5.74v-1.32H243.42v-2.9h10.62v-5.46H241.76v1.34h10.68V140H241.8v5.54h5.26v3.38h-7.3v1.34h16.3v-1.34Zm19.96-12.82h-1.62v3.22a9.505,9.505,0,0,1-4.62,8.02l.98,1.32a9.936,9.936,0,0,0,4.46-5.94,9.9,9.9,0,0,0,4.34,5.58l1.02-1.3a9.059,9.059,0,0,1-4.56-7.68Zm10.74,5.72h-2.96v-7.26h-1.64v17.92h1.64v-9.3h2.96Zm14.68-7.28v17.98h1.64V134.54Zm-7.82,1.38c-2.66,0-4.56,2.44-4.56,6.26s1.9,6.26,4.56,6.26,4.56-2.44,4.56-6.26S288.94,135.92,286.28,135.92Zm0,1.48c1.74,0,2.98,1.88,2.98,4.78,0,2.92-1.24,4.8-2.98,4.8-1.76,0-3-1.88-3-4.8C283.28,139.28,284.52,137.4,286.28,137.4Zm14.66,8.22a9.527,9.527,0,0,0,6.66-4.82c1.14,2.46,4,4.22,6.72,4.78l.66-1.32c-3.12-.52-6.54-2.98-6.54-5.82v-.78h5.94v-1.34H300.8v1.34h5.94v.78c0,2.84-3.4,5.34-6.5,5.88Zm-1.48,3.12v1.36h16.28v-1.36Zm36-.78h1.66v-13.4h-1.66v4.2h-3.92v1.36h3.92Zm-2.64-4.24a6.434,6.434,0,0,1-4.34-5.82v-2.28h-1.64v2.22a6.766,6.766,0,0,1-4.48,6.26l.86,1.3a7.812,7.812,0,0,0,4.46-4.68,7.539,7.539,0,0,0,4.28,4.26Zm-5.6,7.02v-4.26h-1.64v5.6h11.96v-1.34Zm21.92-8.08a28.184,28.184,0,0,1-6.04.48V140.7h5.14v-1.26H343.1v-2.26h5.34v-1.32h-6.92v8.62h1.14a30.617,30.617,0,0,0,6.64-.5Zm-5.32,5.02h10.42v4.8h1.64v-6.12H343.82Zm10.48-13.12v4.66h-2.4v-4.34h-1.56V145.3h1.56v-4.74h2.4v4.86h1.58V134.56Zm8.9,12.46c-1.44,0-2.34-1.82-2.34-4.76,0-2.88.9-4.7,2.34-4.7,1.4,0,2.32,1.82,2.32,4.7C365.52,145.2,364.6,147.02,363.2,147.02Zm6.06-5.5H367c-.2-3.38-1.64-5.48-3.8-5.48-2.34,0-3.84,2.4-3.84,6.22,0,3.88,1.5,6.28,3.84,6.28,2.2,0,3.66-2.16,3.8-5.68h2.26v8.74h1.56V134.94h-1.56Zm3.56-6.98v17.94h1.56V134.54Zm11.36,3.22h2.9v-1.34h-4.52v11.36h.8a18.3,18.3,0,0,0,4.08-.38l-.18-1.36a17.173,17.173,0,0,1-3.08.36Zm5.52,0h3.14v-1.34h-4.76v11.36h.88a17.492,17.492,0,0,0,4.6-.42L393.4,146a15.647,15.647,0,0,1-3.7.42Zm8.98,3.82H396.1v-7.06h-1.64v17.96h1.64v-9.52h2.58Zm4.08,1.06h6.46V136.2H401.1v1.34h6.5v3.76h-6.44v6.86h1.42a45.722,45.722,0,0,0,8.62-.64l-.18-1.36a40.63,40.63,0,0,1-8.26.64Zm14.42-.98h-2.94v-7.14H412.6V152.5h1.64v-9.46h2.94Zm15.52,3.48v1.22h3.64v1.84h1.64V134.54h-1.64v10.6Zm-3.66-8.66c1.7,0,2.86.76,2.86,1.9,0,1.16-1.16,1.92-2.86,1.92s-2.86-.76-2.86-1.92C426.18,137.24,427.34,136.48,429.04,136.48Zm0,5.04c2.62,0,4.42-1.22,4.42-3.14,0-1.88-1.8-3.12-4.42-3.12s-4.42,1.24-4.42,3.12C424.62,140.3,426.42,141.52,429.04,141.52Zm-.64,6.04h1.64v-3.54c1.62-.1,3.28-.28,4.86-.52l-.14-1.18a97.451,97.451,0,0,1-11.56.52l.22,1.36c1.48,0,3.2-.02,4.98-.1Zm-1,3.18v-3.88h-1.64v5.22h12.68v-1.34Zm19.56-3.62a2.77,2.77,0,1,1,2.82-2.76A2.69,2.69,0,0,1,446.96,147.12Zm0-6.9a4.137,4.137,0,1,0,4.38,4.14A4.089,4.089,0,0,0,446.96,140.22Zm.8-5.46h-1.64v2.66H441.6v1.32h10.58v-1.32h-4.42Zm10.7,7.16h-2.94v-7.36h-1.64v17.92h1.64V143.3h2.94Zm16.02-1.98H463.92V135.2h-1.64v6.08h12.2ZM463.8,146.8h-1.64v5.24h12.42V150.7H463.8Zm-3.72-3.12V145h16.26v-1.32Zm38.36-.12c-3.14-.6-6.54-3.32-6.54-6.38V135.8h-1.72v1.38c0,3.06-3.38,5.76-6.52,6.38l.74,1.36a9.851,9.851,0,0,0,6.64-5.18,9.734,9.734,0,0,0,6.66,5.18Zm-15.46,5.16v1.36h16.26v-1.36Zm20.82-6.2h6.32V141.2H503.8v-3.7h6.72v-1.34h-8.36v12h1.4a45.852,45.852,0,0,0,8.46-.6l-.16-1.32a45.563,45.563,0,0,1-8.06.58Zm14.34-.78h-2.96v-7.2h-1.64v17.92h1.64v-9.34h2.96Zm16.36-7.2h-1.64v9.2h1.64Zm-12.72,4.64a3.07,3.07,0,1,1,3.04,2.64A2.775,2.775,0,0,1,521.78,139.18Zm7.68,0c0-2.38-1.96-4-4.64-4s-4.62,1.62-4.62,4c0,2.36,1.94,3.96,4.62,3.96S529.46,141.54,529.46,139.18Zm-4.92,11.76v-1.98h9.96v-4.34H522.88v1.3h10v1.82h-9.96v4.5H535.1v-1.3Zm21.74-14.86c2.94,0,4.62.68,4.62,1.88s-1.68,1.88-4.62,1.88-4.62-.68-4.62-1.88S543.34,136.08,546.28,136.08Zm0,4.98c3.94,0,6.3-1.08,6.3-3.1s-2.36-3.12-6.3-3.12-6.3,1.1-6.3,3.12S542.34,141.06,546.28,141.06Zm-4.5,8.12h10.54v-4.04h-12.2v1.24H550.7v1.6H540.18v4.3h12.68V151H541.78Zm-3.62-6.9v1.32H554.4v-1.32Zm24.74-2.1a3.05,3.05,0,1,1,3.06,3.06A2.963,2.963,0,0,1,562.9,140.18Zm11.28-1.5v2.98h-3.86a4.745,4.745,0,0,0,0-2.98Zm0,4.3v4.82h1.66V134.56h-1.66v2.8h-4.56a4.6,4.6,0,0,0-3.66-1.68,4.5,4.5,0,1,0,0,9,4.592,4.592,0,0,0,3.68-1.7Zm-8.16,7.76v-4.3h-1.66v5.64h11.98v-1.34Zm14.78-9.04c3.02-.24,5.68-1.16,6.78-2.82,1.1,1.66,3.74,2.58,6.74,2.82l.5-1.24c-3.34-.22-6.04-1.32-6.32-3.1h5.52v-1.24H588.4v-1.7h-1.64v1.7h-5.64v1.24h5.54c-.28,1.78-3.02,2.88-6.34,3.1Zm14.86,2.06V142.5H579.48v1.26h7.26v1.66H581.4v1.22h10.58v1.52H581.46v4.12h12.68v-1.24H583.06v-1.7H593.6v-3.92h-5.2v-1.66Zm12.84-7.58h-4.48v-1.82h-1.64v1.82h-4.46v1.26H608.5Zm-8.02,5c0-1.08,1.06-1.72,2.72-1.72s2.74.64,2.74,1.72c0,1.06-1.08,1.72-2.74,1.72S600.48,142.24,600.48,141.18Zm7.02,0c0-1.82-1.7-2.94-4.3-2.94-2.58,0-4.28,1.12-4.28,2.94s1.7,2.94,4.28,2.94C605.8,144.12,607.5,143,607.5,141.18Zm-5.46,8.12h9.74v-3.98h-11.4v1.22h9.78v1.56h-9.72v4.18h12v-1.26h-10.4Zm9.74-10.5v-4.32h-1.64v9.92h1.64v-4.24h2.66V138.8Zm24.4,2.58c-3.26-.48-6.46-2.7-6.46-5.2v-1H628v1c0,2.56-3.16,4.72-6.42,5.2l.66,1.32c2.8-.48,5.5-2.02,6.62-4.2,1.16,2.16,3.86,3.72,6.64,4.2Zm.78,3.26h-16.2V146H628v6.5h1.64V146h7.34ZM15.78,166.56H14.14V176.8h1.64Zm-9.64,2.4a2.833,2.833,0,1,1,0,5.64,2.829,2.829,0,1,1,0-5.64Zm0,7c2.72,0,4.7-1.7,4.7-4.18s-1.98-4.18-4.7-4.18c-2.7,0-4.66,1.7-4.66,4.18S3.44,175.96,6.14,175.96Zm7.64,1.62h-1.6v.96A5.292,5.292,0,0,1,9.6,182.8a4.98,4.98,0,0,1-2.48-4.26v-.96H5.54v.96A5.092,5.092,0,0,1,1.94,183l.82,1.24a6.3,6.3,0,0,0,3.54-3.32,5.725,5.725,0,0,0,3.34,3.48,6.239,6.239,0,0,0,3.32-3.54,5.979,5.979,0,0,0,3.6,3.38l.82-1.24a4.884,4.884,0,0,1-3.6-4.46Zm20.98-5.44c-3.18-.4-6.34-2.38-6.34-4.6v-.8H26.74v.8c0,2.28-3.14,4.2-6.36,4.6l.6,1.32c2.8-.44,5.48-1.84,6.6-3.84,1.14,2,3.8,3.4,6.58,3.84Zm-2.82,10.78H23.12v-2.28h8.82Zm0-3.54H23.12v-2.1H21.5v6.96H33.56v-6.96H31.94Zm-12.5-4.66v1.32H35.68v-1.32Zm21.18-6.44H38.98v11.56h1.48a42.619,42.619,0,0,0,8.8-.84l-.18-1.4a42.382,42.382,0,0,1-8.46.84Zm10.3-1.74v17.92h1.64V166.54Zm7.74,3.08h6.7v-1.36H57.02v11.78h1.42a42.527,42.527,0,0,0,8.48-.64l-.18-1.36a43.6,43.6,0,0,1-8.08.6Zm14.36,4H70.06v-7.08H68.42v17.98h1.64v-9.54h2.96Zm3.36,9.64a1.321,1.321,0,0,0,1.32-1.38,1.324,1.324,0,1,0-2.64,0A1.321,1.321,0,0,0,76.38,183.26ZM11.64,233.42H7.18v-2.66H5.54v2.66H1.04v1.34h10.6Zm-5.28,9.66a2.73,2.73,0,0,1,0-5.46,2.73,2.73,0,0,1,0,5.46Zm0-6.86a4.131,4.131,0,1,0,0,8.26,4.131,4.131,0,1,0,0-8.26Zm7.84-5.66v7.5H11.26v1.34H14.2v9.08h1.64V230.56Zm8.04,12.96H32.58v4.98h1.66v-6.32h-12Zm4.58-4.64H21.98v-3.02h4.84Zm5.76-8.32v4.66H28.44V231.6H26.82v2.96H21.98v-2.94H20.36v8.58h8.08v-3.64h4.14v4.66h1.66V230.56Zm11.68,3.18h4.22v-1.36H38.46v1.36h4.16v2.28a9.175,9.175,0,0,1-4.76,7.7l.96,1.32a10.06,10.06,0,0,0,4.62-5.92,9.477,9.477,0,0,0,4.7,5.48l.92-1.32a8.353,8.353,0,0,1-4.8-7.26Zm6.64-3.18v17.92h1.64V230.56Zm11.78,5.66a3.081,3.081,0,1,1,3.08,3A2.943,2.943,0,0,1,62.68,236.22Zm7.76,0a4.688,4.688,0,1,0-4.68,4.42A4.4,4.4,0,0,0,70.44,236.22Zm-5.3,6.18H63.5v5.68H75.46v-1.34H65.14Zm9.52-6.4v-5.46H73.02v13.2h1.64v-6.38H77.3V236Zm5.72,1.66a5.711,5.711,0,0,0,3.48-3.06,5.689,5.689,0,0,0,3.4,2.8,5.475,5.475,0,0,0,3.34-2.74,5.449,5.449,0,0,0,3.5,3l.72-1.22c-2.1-.62-3.34-2.16-3.34-3.52v-.4H94.3v-1.34H87.6v1.34h2.26v.3a3.98,3.98,0,0,1-2.6,3.14,4.085,4.085,0,0,1-2.64-3.14v-.3h2.26v-1.34H80.2v1.34h2.78v.4c0,1.2-1.22,2.84-3.3,3.52Zm.54,6.32H91.68v4.52h1.64v-5.84H80.92Zm7.16-4.56v-1.8H86.42v1.8H79.14v1.32H95.42v-1.32Zm13.52,3.6c-1.44,0-2.34-1.82-2.34-4.76,0-2.88.9-4.7,2.34-4.7,1.4,0,2.32,1.82,2.32,4.7C103.92,241.2,103,243.02,101.6,243.02Zm6.06-5.5H105.4c-.2-3.38-1.64-5.48-3.8-5.48-2.34,0-3.84,2.4-3.84,6.22,0,3.88,1.5,6.28,3.84,6.28,2.2,0,3.66-2.16,3.8-5.68h2.26v8.74h1.56V230.94h-1.56Zm3.56-6.98v17.94h1.56V230.54Zm19.86,1.36h-4.32v-1.54h-1.64v1.54h-4.34v1.18h10.3ZM123.3,236c0-.8,1.02-1.28,2.64-1.28,1.6,0,2.62.48,2.62,1.28s-1.02,1.3-2.62,1.3C124.32,237.3,123.3,236.8,123.3,236Zm8.32,2.98c-1.54.2-3.22.34-4.86.42v-1.06c2.06-.18,3.36-1.02,3.36-2.34,0-1.48-1.66-2.36-4.18-2.36-2.56,0-4.2.88-4.2,2.36,0,1.34,1.3,2.18,3.38,2.34v1.1c-1.72.06-3.38.06-4.78.06l.18,1.22a65.942,65.942,0,0,0,11.2-.7Zm-7.26,6.6h9.96v-3.66H122.7v1.16h10v1.4h-9.94v3.8H135V247.1H124.36Zm9.96-10.46v-4.58h-1.64v10.6h1.64V236.5h2.64v-1.38Zm12.62,12.08c-2.84,0-4.5-.7-4.5-1.96s1.66-1.96,4.5-1.96c2.8,0,4.46.7,4.46,1.96S149.74,247.2,146.94,247.2Zm0-5.2c-3.84,0-6.16,1.16-6.16,3.24s2.32,3.24,6.16,3.24c3.8,0,6.12-1.16,6.12-3.24S150.74,242,146.94,242Zm.82-2.6v-2.08h5.4V236H142.5v-3.32h10.54v-1.32H140.86v5.96h5.26v2.08h-7.3v1.32h16.24V239.4Zm18.66,3.76h8.46v3.76h-8.46Zm-1.6,5.08h11.66v-6.38H164.82Zm4.24-9.62h-4.84V235.7h4.84Zm5.76-8.06v4.52h-4.14v-3.54h-1.62v2.86h-4.84v-2.84H162.6v8.38h8.08v-3.52h4.14v4.52h1.66v-10.4Zm11.16,2.18c1.74,0,2.98.94,2.98,2.34s-1.24,2.34-2.98,2.34c-1.76,0-3-.94-3-2.34S184.22,232.74,185.98,232.74Zm0,6.02c2.66,0,4.56-1.5,4.56-3.68,0-2.2-1.9-3.7-4.56-3.7-2.68,0-4.58,1.5-4.58,3.7C181.4,237.26,183.3,238.76,185.98,238.76Zm5.9.88a82.4,82.4,0,0,1-11.82.64l.22,1.38c1.48,0,3.18-.02,4.96-.1v6.36h1.64v-6.46a44.973,44.973,0,0,0,5.14-.6Zm1.3-9.08V248.5h1.64V230.56Zm17.88,3.12H200.58v3.84H213v-1.18H202.2V234.8h10.48v-3.74H200.54v1.16h10.52ZM202.1,245.4h10.64v-3.82h-12.3v1.18h10.68v1.5H200.48v3.98H213.3v-1.18H202.1Zm-3.6-6.52v1.24h16.26v-1.24Zm37.24-4.06H225.18V230.8h-1.62v5.34h12.18Zm-10.68,10.24h10.52v-4.22h-12.2v1.28h10.56v1.72H223.42v4.4h12.76v-1.28H225.06Zm-3.7-7.16v1.34h16.28V237.9Zm20.7.68h6.18v-6.42H240.4v1.32h6.22v3.76h-6.18v7.08h1.36a48.081,48.081,0,0,0,7.92-.54l-.14-1.36a45.616,45.616,0,0,1-7.52.54Zm10.84-8.06v4.1h-3.54v1.34h3.54v3.58h-3.66v1.34h3.66v7.62h1.64V230.52Zm6.88,8.74c2.78-.48,5.42-1.98,6.52-4.1,1.08,2.12,3.74,3.62,6.52,4.1l.64-1.3c-3.16-.46-6.26-2.52-6.26-4.88v-.1h5.62v-1.32h-13.1v1.32h5.66v.1c0,2.36-3.1,4.42-6.22,4.88Zm14.62,1.5H258.2v1.34h7.24v6.38h1.64V242.1h7.34Zm16.56-4.82H280.4V231.2h-1.64v6.08h12.2Zm-10.68,6.86h-1.64v5.24h12.42V246.7H280.28Zm-3.72-3.12V241h16.26v-1.32Zm23.86-7.22v1.36H307c-.38,4.24-2.84,7.68-7.42,9.98l.9,1.28c5.8-2.9,8.14-7.52,8.14-12.62Zm15.72,5.36h-2.88v-7.28h-1.64v17.94h1.64v-9.3h2.88ZM333,230.56h-1.58v12.08H333Zm-7.72,4.68v1.34h2.68V241h1.56V230.86h-1.56v4.38Zm1.36,4.16a5.567,5.567,0,0,1-3.48-5.02v-1h3.08v-1.34h-7.96v1.34h3.3v1a6.206,6.206,0,0,1-3.64,5.58l.88,1.26a6.87,6.87,0,0,0,3.58-4.08,6.447,6.447,0,0,0,3.44,3.56Zm1.2,2.34h-1.66v.6c0,2.34-2.9,4.28-6.04,4.78l.62,1.28c2.68-.46,5.16-1.86,6.26-3.82,1.08,1.96,3.6,3.36,6.28,3.82l.62-1.28c-3.16-.5-6.08-2.44-6.08-4.78Zm9.9-3.92.24,1.36,10.82-.6a29.12,29.12,0,0,1-.7,4.58l1.62.16a37.367,37.367,0,0,0,.78-8.76v-2.2H338.2v1.34h10.7v.86c0,.92,0,1.84-.04,2.78Zm-1.46,6.82v1.34H352.5v-1.34Zm27.32.28v-3.38h5.74v-1.32H358.3v-2.9h10.62v-5.46H356.64v1.34h10.68V236H356.68v5.54h5.26v3.38h-7.3v1.34h16.3v-1.34Zm16.06-9.96h4.1v-1.32h-4.08v-2.78h-1.66v2.78h-4.14v1.32h4.16v1.38a8.458,8.458,0,0,1-4.64,7.42l.92,1.24a9.26,9.26,0,0,0,4.56-5.54,8.986,8.986,0,0,0,4.58,5.24l.9-1.28a8.05,8.05,0,0,1-4.7-7.08Zm6.44-4.44v17.94h1.66V230.52Zm13.04,3.6h2.24v8.42c-.74.06-1.52.08-2.24.1Zm3.74,0h1.52V232.8h-8.3v1.32h1.54v8.56c-.7.02-1.32.02-1.88.02l.18,1.36a52.726,52.726,0,0,0,8.92-.62l-.1-1.18c-.58.08-1.22.14-1.88.18Zm6.74-3.56v7.2h-2.34v-6.82h-1.54v16.64h1.54V239.1h2.34v9.38h1.56V230.56Zm17.84,13.3h1.66v-13.3h-1.66v5.02h-3.44v1.34h3.44Zm-3.24-4.64a40.264,40.264,0,0,1-7.34.48v-2.64h5.92v-1.32h-5.92v-2.46h6.4v-1.34h-8.04v9.1h1.34a41.026,41.026,0,0,0,7.78-.5Zm-4.96,7.52v-4h-1.64v5.34h11.96v-1.34Zm26.52-16.2v17.98h1.64V230.54Zm-7.82,1.38c-2.66,0-4.56,2.44-4.56,6.26s1.9,6.26,4.56,6.26,4.56-2.44,4.56-6.26S440.62,231.92,437.96,231.92Zm0,1.48c1.74,0,2.98,1.88,2.98,4.78,0,2.92-1.24,4.8-2.98,4.8-1.76,0-3-1.88-3-4.8C434.96,235.28,436.2,233.4,437.96,233.4Zm25.78-1.24c2.82,0,4.6.78,4.6,2.1,0,1.3-1.78,2.08-4.6,2.08-2.86,0-4.64-.78-4.64-2.08C459.1,232.94,460.88,232.16,463.74,232.16Zm0,5.44c3.86,0,6.28-1.22,6.28-3.34,0-2.14-2.42-3.38-6.28-3.38-3.9,0-6.32,1.24-6.32,3.38C457.42,236.38,459.84,237.6,463.74,237.6Zm4.52,9.32h-9.04v-3.28h9.04Zm3.58-6.62v-1.32H455.62v1.32h7.3v2.04h-5.3v5.9h12.24v-5.9h-5.3V240.3Zm13.14-1c-2.64-.88-4.5-3.06-4.5-5.46v-.72h4.06V231.8H474.7v1.32h4.1v.72a6.423,6.423,0,0,1-4.54,5.82l.86,1.28a7.574,7.574,0,0,0,4.54-4.42,7.62,7.62,0,0,0,4.52,4.08Zm-8.24,4.36H487.1v4.82h1.64v-6.14h-12Zm10.36-13.12V241.4h1.64V230.54Zm18.4.02v10.26h1.64V230.56Zm-9.96,11.22v6.46h11.6v-6.46Zm10,1.3v3.84h-8.4v-3.84ZM497.5,231.5c-2.7,0-4.66,1.7-4.66,4.18s1.96,4.18,4.66,4.18c2.72,0,4.7-1.7,4.7-4.18S500.22,231.5,497.5,231.5Zm0,1.36a2.833,2.833,0,1,1,0,5.64,2.829,2.829,0,1,1,0-5.64Zm19.14-1c-2.78,0-4.8,1.7-4.8,4.22,0,2.5,2.02,4.22,4.8,4.22,2.8,0,4.8-1.72,4.8-4.22C521.44,233.56,519.44,231.86,516.64,231.86Zm0,1.4a2.843,2.843,0,1,1-3.2,2.82A2.9,2.9,0,0,1,516.64,233.26Zm7.16-2.72v17.98h1.64V230.54Zm-12.66,14.04a65.958,65.958,0,0,0,11.62-.78l-.14-1.22a80.779,80.779,0,0,1-11.68.62Zm23.52-12.12v1.36h6.58c-.38,4.24-2.84,7.68-7.42,9.98l.9,1.28c5.8-2.9,8.14-7.52,8.14-12.62Zm15.72,5.36H547.5v-7.28h-1.64v17.94h1.64v-9.3h2.88Zm9.84,9.38c-2.84,0-4.5-.7-4.5-1.96s1.66-1.96,4.5-1.96c2.8,0,4.46.7,4.46,1.96S563.02,247.2,560.22,247.2Zm0-5.2c-3.84,0-6.16,1.16-6.16,3.24s2.32,3.24,6.16,3.24c3.8,0,6.12-1.16,6.12-3.24S564.02,242,560.22,242Zm.82-2.6v-2.08h5.4V236H555.78v-3.32h10.54v-1.32H554.14v5.96h5.26v2.08h-7.3v1.32h16.24V239.4Zm18.66,3.76h8.46v3.76H579.7Zm-1.6,5.08h11.66v-6.38H578.1Zm4.24-9.62H577.5V235.7h4.84Zm5.76-8.06v4.52h-4.14v-3.54h-1.62v2.86H577.5v-2.84h-1.62v8.38h8.08v-3.52h4.14v4.52h1.66v-10.4Zm11.16,2.18c1.74,0,2.98.94,2.98,2.34s-1.24,2.34-2.98,2.34c-1.76,0-3-.94-3-2.34S597.5,232.74,599.26,232.74Zm0,6.02c2.66,0,4.56-1.5,4.56-3.68,0-2.2-1.9-3.7-4.56-3.7-2.68,0-4.58,1.5-4.58,3.7C594.68,237.26,596.58,238.76,599.26,238.76Zm5.9.88a82.4,82.4,0,0,1-11.82.64l.22,1.38c1.48,0,3.18-.02,4.96-.1v6.36h1.64v-6.46a44.972,44.972,0,0,0,5.14-.6Zm1.3-9.08V248.5h1.64V230.56Zm17.88,3.12H613.86v3.84h12.42v-1.18h-10.8V234.8h10.48v-3.74H613.82v1.16h10.52Zm-8.96,11.72h10.64v-3.82h-12.3v1.18H624.4v1.5H613.76v3.98h12.82v-1.18h-11.2Zm-3.6-6.52v1.24h16.26v-1.24Zm37.24-4.06H638.46V230.8h-1.62v5.34h12.18Zm-10.68,10.24h10.52v-4.22h-12.2v1.28h10.56v1.72H636.7v4.4h12.76v-1.28H638.34Zm-3.7-7.16v1.34h16.28V237.9Zm20.7.68h6.18v-6.42h-7.84v1.32h6.22v3.76h-6.18v7.08h1.36a48.081,48.081,0,0,0,7.92-.54l-.14-1.36a45.616,45.616,0,0,1-7.52.54Zm10.84-8.06v4.1h-3.54v1.34h3.54v3.58h-3.66v1.34h3.66v7.62h1.64V230.52Zm6.76,7c2.96-.34,5.66-1.62,6.64-3.58,1,1.94,3.68,3.24,6.64,3.58l.58-1.28c-3.1-.32-5.94-1.82-6.14-3.74h5.56v-1.32H672.94v1.32h5.56c-.2,1.92-3.04,3.42-6.16,3.74Zm11.02,9.4h-8.84v-2.2h8.84Zm0-3.48h-8.84v-2.08H673.5v6.88h12.08v-6.88h-1.62Zm-12.52-4.8v1.32h7.3v2.5h1.66v-2.5h7.28v-1.32ZM3.82,264.28H2.18v11.56H3.66a42.618,42.618,0,0,0,8.8-.84l-.18-1.4a42.381,42.381,0,0,1-8.46.84Zm10.3-1.74v17.92h1.64V262.54Zm7.74,3.08h6.7v-1.36H20.22v11.78h1.42a42.526,42.526,0,0,0,8.48-.64l-.18-1.36a43.6,43.6,0,0,1-8.08.6Zm14.36,4H33.26v-7.08H31.62v17.98h1.64v-9.54h2.96Zm3.36,9.64a1.321,1.321,0,0,0,1.32-1.38,1.324,1.324,0,1,0-2.64,0A1.321,1.321,0,0,0,39.58,279.26Zm18.96-14.52H54.06v-2.2H52.42v2.2H47.96v1.32H58.54Zm-8.02,5.64c0-1.24,1.1-2.04,2.72-2.04s2.74.8,2.74,2.04c0,1.26-1.12,2.06-2.74,2.06S50.52,271.64,50.52,270.38Zm7.02,0c0-2-1.76-3.32-4.3-3.32s-4.28,1.32-4.28,3.32c0,2.02,1.74,3.34,4.28,3.34S57.54,272.4,57.54,270.38Zm-5.24,4.56H50.66v5.14H62.62v-1.34H52.3Zm9.52-6.48v-5.92H60.18V276h1.64v-6.16h2.64v-1.38Zm24.1.54c-3.14-.5-6.2-2.68-6.2-5.18v-.8H78.04v.8c0,2.5-3.02,4.68-6.22,5.18l.66,1.3c2.72-.5,5.3-2.02,6.4-4.18,1.12,2.14,3.7,3.66,6.4,4.18ZM74.5,274.96H72.86v5.12H85.22v-1.34H74.5Zm5.2-2.78v-3.04H78.06v3.04h-7.3v1.32h16.3v-1.32Zm17.58-8.52c-3.72,0-6.52,1.98-6.52,4.96,0,3,2.8,4.96,6.52,4.96s6.52-1.96,6.52-4.96C103.8,265.64,101,263.66,97.28,263.66Zm0,1.34c2.84,0,4.96,1.46,4.96,3.62,0,2.18-2.12,3.62-4.96,3.62-2.82,0-4.96-1.44-4.96-3.62C92.32,266.46,94.46,265,97.28,265Zm-8.12,11.74v1.36h16.3v-1.36Zm27.36.18v-3.38h5.74v-1.32H111.22v-2.9h10.62v-5.46H109.56v1.34h10.68V268H109.6v5.54h5.26v3.38h-7.3v1.34h16.3v-1.34Zm18.4-.06v-4.6h5.46v-1.32h-10.7v-5.62H140.2v-1.34H128.04v8.28h5.22v4.6h-7.3v1.36h16.3v-1.36Zm25.16-9.1c-2.56-.54-4.34-2.04-4.34-3.88v-.9h-1.7v.9c0,1.92-1.76,3.54-4.36,4.14l.72,1.26a6.536,6.536,0,0,0,4.5-3.32,6.56,6.56,0,0,0,4.46,3.06Zm-5.84,6.5h1.64v-2.68a43.963,43.963,0,0,0,4.86-.5l-.12-1.2a92.708,92.708,0,0,1-11.72.52l.2,1.36c1.54,0,3.32,0,5.14-.08Zm7.6,4.66h-8.52v-1.98h8.52Zm0-3.26h-8.52v-1.92h-1.64v6.5h11.78v-6.5h-1.62Zm-.02-13.1v10.3h1.64v-10.3Zm15.38,7.32h-3.1a14.316,14.316,0,0,0,.86-5.06h-6.92v1.34h5.3a11.567,11.567,0,0,1-6.06,9.28l.96,1.18a13.654,13.654,0,0,0,5.28-5.42h3.68v8.38h1.56V263.02H177.2Zm3.74-7.34v17.94h1.56V262.54Zm10.68,10.58c2.7-.58,5.52-2.36,6.66-4.84,1.14,2.46,3.98,4.22,6.72,4.76l.66-1.32c-3.12-.5-6.54-2.96-6.54-5.82v-.38h5.94v-1.34H191.48v1.34h5.94v.38c0,2.86-3.4,5.36-6.5,5.88Zm7.48,3.7v-4.34h-1.64v4.34h-7.32v1.36h16.28v-1.36Zm19.02-10.26v1.32h3.54v3.94h1.64v-9.26h-1.64v4Zm.94,3.76c-2.56-.82-4.32-2.88-4.32-5.04v-.48h3.96v-1.32h-9.6v1.32h3.98v.48c0,2.32-1.86,4.56-4.48,5.46l.82,1.28a7.413,7.413,0,0,0,4.5-4.22,7.028,7.028,0,0,0,4.36,3.8Zm-5.66,8.66v-1.96h9.9v-4.3H211.74V274h9.94v1.78h-9.9v4.5h12.2v-1.3Zm24.18-14.8H233.1v-1.82h-1.64v1.82H227v1.26h10.58Zm-8.02,5c0-1.08,1.06-1.72,2.72-1.72s2.74.64,2.74,1.72c0,1.06-1.08,1.72-2.74,1.72S229.56,270.24,229.56,269.18Zm7.02,0c0-1.82-1.7-2.94-4.3-2.94-2.58,0-4.28,1.12-4.28,2.94s1.7,2.94,4.28,2.94C234.88,272.12,236.58,271,236.58,269.18Zm-5.46,8.12h9.74v-3.98h-11.4v1.22h9.78v1.56h-9.72v4.18h12v-1.26h-10.4Zm9.74-10.5v-4.32h-1.64v9.92h1.64v-4.24h2.66V266.8Zm24.4,2.58c-3.26-.48-6.46-2.7-6.46-5.2v-1h-1.72v1c0,2.56-3.16,4.72-6.42,5.2l.66,1.32c2.8-.48,5.5-2.02,6.62-4.2,1.16,2.16,3.86,3.72,6.64,4.2Zm.78,3.26h-16.2V274h7.24v6.5h1.64V274h7.34Zm21.38-10.08h-1.64V272.8h1.64Zm-9.64,2.4a2.833,2.833,0,1,1,0,5.64,2.829,2.829,0,1,1,0-5.64Zm0,7c2.72,0,4.7-1.7,4.7-4.18s-1.98-4.18-4.7-4.18c-2.7,0-4.66,1.7-4.66,4.18S275.08,271.96,277.78,271.96Zm7.64,1.62h-1.6v.96a5.292,5.292,0,0,1-2.58,4.26,4.98,4.98,0,0,1-2.48-4.26v-.96h-1.58v.96a5.092,5.092,0,0,1-3.6,4.46l.82,1.24a6.3,6.3,0,0,0,3.54-3.32,5.725,5.725,0,0,0,3.34,3.48,6.239,6.239,0,0,0,3.32-3.54,5.979,5.979,0,0,0,3.6,3.38l.82-1.24a4.884,4.884,0,0,1-3.6-4.46Zm20.06-5.64H294.92V263.2h-1.64v6.08h12.2ZM294.8,274.8h-1.64v5.24h12.42V278.7H294.8Zm-3.72-3.12V273h16.26v-1.32Zm27.42-6.74a2.087,2.087,0,1,1,0,4.12,2.09,2.09,0,1,1,0-4.12Zm0,5.36c2.24,0,3.9-1.36,3.9-3.3,0-1.96-1.66-3.3-3.9-3.3-2.26,0-3.9,1.34-3.9,3.3C314.6,268.94,316.24,270.3,318.5,270.3Zm4.58.92a69.747,69.747,0,0,1-9.34.46l.2,1.38c1.04,0,2.34,0,3.7-.06v6.04h1.56V272.9a28.411,28.411,0,0,0,4-.48Zm1.14,3.1h-3.36v1.28h3.36v3.96h1.54V262.98h-1.54Zm3.38-11.76v17.92h1.58V262.56Zm5.72,1.1v8.32h8.4v-8.32H340.1v2.76h-5.16v-2.76Zm1.62,4.04h5.16v2.96h-5.16Zm10.52-5.14v10.86h1.64V262.56Zm-4.32,11.22c-3.72,0-6.02,1.22-6.02,3.34s2.3,3.34,6.02,3.34,6.02-1.22,6.02-3.34S344.86,273.78,341.14,273.78Zm0,1.28c2.72,0,4.38.76,4.38,2.06,0,1.28-1.66,2.06-4.38,2.06s-4.4-.78-4.4-2.06C336.74,275.82,338.42,275.06,341.14,275.06Zm29.26-12.5h-1.58v9.42h1.58Zm-8.92,7.3h-3.86v-2.64h3.86Zm1.54-1.92h2.3v3.92h1.54v-8.94h-1.54v3.68h-2.3v-3.02h-1.54v2.38h-3.86v-2.38h-1.56v7.56h6.96Zm-2.8,11.04v-1.92H370.4v-4.2H358.56v1.28h10.2v1.7H358.6v4.44h12.48v-1.3Zm27.84-6.76H377.4v-2.84h10.08v-1.3H377.4v-2.66h10.48V264.1H375.74v9.44h12.32Zm-14.42,4.6v1.34h16.28v-1.34Zm20.62-8.9a3.167,3.167,0,0,1,6.3,0,3.169,3.169,0,0,1-6.3,0Zm3.98,4.16a4.187,4.187,0,0,0,3.92-4.16c0-2.52-2-4.22-4.74-4.22-2.78,0-4.76,1.7-4.76,4.22a4.161,4.161,0,0,0,3.94,4.16v3.1c-1.68.04-3.32.06-4.74.06l.22,1.38a69.348,69.348,0,0,0,11.14-.7l-.14-1.2c-1.54.22-3.2.32-4.84.4Zm10.46-2.14h-2.84v-7.42h-1.64v17.96h1.64v-9.16h2.84Zm20.96-7.4h-1.64V275.7h1.64Zm-3.92,8.94a6.655,6.655,0,0,1-4.48-6.12v-1.82h-1.64v1.82a6.99,6.99,0,0,1-4.5,6.44l.86,1.34a8.048,8.048,0,0,0,4.48-4.8,7.733,7.733,0,0,0,4.42,4.44Zm-5.98,7.26v-4.26h-1.64v5.6H430.2v-1.34Zm15.06-8.18c2.94-.3,5.56-1.38,6.64-3.18,1.08,1.8,3.68,2.88,6.62,3.18l.52-1.24c-3.4-.34-6.12-1.72-6.26-3.72h5.56v-1.3h-5.62v-1.86h-1.64v1.86h-5.62v1.3h5.54c-.14,2-2.86,3.38-6.24,3.72Zm14.74,2.32v-1.32H433.34v1.32h7.3v2.06h-5.5v1.3h10.78v4.18h1.64v-5.48h-5.28v-2.06Zm15.3.28h1.66v-10.6h-1.66v3.8h-3.9v1.34h3.9Zm-2.6-2.12a6.151,6.151,0,0,1-4.36-5.7v-1.78h-1.64v1.84a6.537,6.537,0,0,1-4.54,6.12l.86,1.34a7.586,7.586,0,0,0,4.54-4.56,7.344,7.344,0,0,0,4.26,4.02Zm-1.66,8.12c-2.7,0-4.34-.78-4.34-2.08,0-1.32,1.64-2.1,4.34-2.1s4.34.78,4.34,2.1C464.94,278.38,463.3,279.16,460.6,279.16Zm0-5.46c-3.68,0-5.98,1.22-5.98,3.38,0,2.14,2.3,3.38,5.98,3.38s5.98-1.24,5.98-3.38C466.58,274.92,464.28,273.7,460.6,273.7Zm28.74-11.14H487.7V272.8h1.64Zm-9.64,2.4a2.833,2.833,0,1,1,0,5.64,2.829,2.829,0,1,1,0-5.64Zm0,7c2.72,0,4.7-1.7,4.7-4.18s-1.98-4.18-4.7-4.18c-2.7,0-4.66,1.7-4.66,4.18S477,271.96,479.7,271.96Zm7.64,1.62h-1.6v.96a5.292,5.292,0,0,1-2.58,4.26,4.98,4.98,0,0,1-2.48-4.26v-.96H479.1v.96a5.092,5.092,0,0,1-3.6,4.46l.82,1.24a6.3,6.3,0,0,0,3.54-3.32,5.725,5.725,0,0,0,3.34,3.48,6.239,6.239,0,0,0,3.32-3.54,5.979,5.979,0,0,0,3.6,3.38l.82-1.24a4.884,4.884,0,0,1-3.6-4.46Zm20.06-5.64H496.84V263.2H495.2v6.08h12.2Zm-10.68,6.86h-1.64v5.24H507.5V278.7H496.72ZM493,271.68V273h16.26v-1.32Zm33.48-6.26h-4.46v-2.66h-1.64v2.66h-4.5v1.34h10.6Zm-5.28,9.66a2.73,2.73,0,1,1,2.68-2.74A2.627,2.627,0,0,1,521.2,275.08Zm0-6.86a4.131,4.131,0,1,0,4.2,4.12A4.03,4.03,0,0,0,521.2,268.22Zm7.84-5.66v7.5H526.1v1.34h2.94v9.08h1.64V262.56Zm7.94,8.04h6.62v-6.4h-8.32v1.34h6.66v3.74h-6.6v6.88h1.48a52.058,52.058,0,0,0,9.04-.66l-.16-1.34a52.718,52.718,0,0,1-8.72.64Zm10.4-8.08V280.5h1.64V262.52Zm21.08,6.64h2.28v6.8h1.58v-13.4h-1.58v5.26h-2.28v-4.94H566.9V275.3h1.56Zm-5.06,2.12h-3.86v-3.04h3.86Zm1.54-7.28H563.4v2.94h-3.86V264h-1.56v8.6h6.96Zm-2.68,14.74V274.3h-1.64v5.78h12.22v-1.34Zm27.7-7.6h-10.7v-5.6h10.52v-1.36H577.64v8.3h12.32Zm-14.4,5.56v1.36h16.28V276.7Zm18.86,6.1a4.451,4.451,0,0,0,2.92-4.18c0-1.34-.58-2.16-1.54-2.16a1.3,1.3,0,0,0-1.38,1.28,1.253,1.253,0,0,0,1.34,1.28.821.821,0,0,0,.22-.02,3,3,0,0,1-2,2.72Zm11.4-6.44H616.6v4.12h1.64v-5.46H605.82Zm4.06-11.84h4.46v3.9h-4.46Zm3.08,7.4v-2.16h5.66v-1.34h-2.64v-3.9h2.72v-1.34H605.54v1.34h2.7v3.9h-2.66v1.34h5.74v2.16h-7.3v1.32h16.22v-1.32Zm22.5-9.38v17.98h1.64V262.54Zm-7.82,1.38c-2.66,0-4.56,2.44-4.56,6.26s1.9,6.26,4.56,6.26,4.56-2.44,4.56-6.26S630.3,263.92,627.64,263.92Zm0,1.48c1.74,0,2.98,1.88,2.98,4.78,0,2.92-1.24,4.8-2.98,4.8-1.76,0-3-1.88-3-4.8C624.64,267.28,625.88,265.4,627.64,265.4ZM660,262.54h-1.64v9.84H660Zm-13.48,1.22v1.34h6.56c-.32,2.94-3.02,5.22-7.44,6.3l.64,1.28c5.24-1.28,8.54-4.38,8.54-8.92Zm5.84,10.92h3.84v4.2h-3.84Zm5.46,4.2v-4.2h2.46v-1.32H648.3v1.32h2.46v4.2h-2.64v1.32H660.5v-1.32Zm15.82-9h-3.1a14.317,14.317,0,0,0,.86-5.06h-6.92v1.34h5.3a11.567,11.567,0,0,1-6.06,9.28l.96,1.18a13.654,13.654,0,0,0,5.28-5.42h3.68v8.38h1.56V263.02h-1.56Zm3.74-7.34v17.94h1.56V262.54ZM14.18,303.82h1.66v-9.26H14.18v3.24h-3.9v1.34h3.9Zm-2.64-1.66a6.025,6.025,0,0,1-4.4-5.38v-1.66H5.52v1.66a6.223,6.223,0,0,1-4.48,5.78l.86,1.3a7.486,7.486,0,0,0,4.48-4.36,7.27,7.27,0,0,0,4.32,3.94Zm-5.6,8.78v-1.92h9.9v-4.3H4.28v1.3h9.94v1.76H4.32v4.46h12.2v-1.3Zm23.6-11.4H26.88a15.454,15.454,0,0,0,.24-2.72H20.24v1.34H25.5a11.476,11.476,0,0,1-6.06,9.28l.96,1.16a12.908,12.908,0,0,0,6.18-7.74h2.96v3.16H26.3v1.34h3.24v6.2H31.1V295.02H29.54Zm3.6-5v17.92H34.7V294.54Zm19.4,0H50.9v13.42h1.64Zm-3.08,9.32c-1.54.18-3.16.28-4.82.36v-2.48H48.2v-1.32H41.18v-3.38h6.9V295.7H39.54v6.04H43v2.54c-1.76.06-3.5.08-5.06.08l.24,1.34a84.82,84.82,0,0,0,11.4-.66Zm-6.88,6.88v-3.66H40.94v5h12.2v-1.34ZM66.6,297.58h4.46v5.88H66.6Zm3.06,11.32v-4.12h5.78v-1.32H72.7v-5.88h2.78v-1.32H62.18v1.32h2.78v5.88H62.22v1.32H68v4.12H60.74v1.34H77V308.9Zm24.68-14.34H92.78v12.16h1.56Zm-5.1,6.56v4h1.54V294.86H89.24v4.94h-2.7a12,12,0,0,0,.56-3.74H80.14v1.34h5.34a9.887,9.887,0,0,1-.4,2.06l-5.78.38.26,1.34,4.98-.52a10.162,10.162,0,0,1-5.22,4.32l.8,1.2a11.4,11.4,0,0,0,5.86-5.06Zm-.1,4.56H87.5v.56c0,2.4-2.94,4.38-6.1,4.88l.64,1.3c2.7-.48,5.18-1.88,6.28-3.9,1.1,2.02,3.62,3.42,6.3,3.9l.66-1.3c-3.18-.5-6.14-2.48-6.14-4.88Zm27.22-5.64H105.7v-3.46h10.54v-1.32H104.06v6.1h12.3Zm-6.24,11.14c-2.82,0-4.48-.7-4.48-1.96s1.66-1.96,4.48-1.96,4.48.7,4.48,1.96S112.92,311.18,110.12,311.18Zm0-5.2c-3.82,0-6.14,1.16-6.14,3.24s2.32,3.24,6.14,3.24,6.14-1.16,6.14-3.24S113.94,305.98,110.12,305.98Zm-8.1-2.9v1.36h16.24v-1.36Zm33.36.42c-2.62-.8-4.36-2.84-4.36-5.08v-.36h3.96v-1.32h-3.96v-2.3h-1.64v2.3H125.4v1.32h3.98v.36a5.891,5.891,0,0,1-4.46,5.4l.82,1.3a7.328,7.328,0,0,0,4.48-4.08,7,7,0,0,0,4.36,3.74Zm-8.22,4.26h10.02v4.72h1.64v-6.06H127.16Zm14.32-8.44h-2.66v-4.76h-1.64v10.92h1.64V300.7h2.66Zm9.92,11.88c-2.82,0-4.48-.7-4.48-1.92s1.66-1.92,4.48-1.92c2.8,0,4.48.7,4.48,1.92S154.2,311.2,151.4,311.2Zm0-5.12c-3.84,0-6.14,1.14-6.14,3.2s2.3,3.18,6.14,3.18c3.86,0,6.14-1.12,6.14-3.18S155.26,306.08,151.4,306.08Zm-2.48-4.76a15.6,15.6,0,0,0,4.98,0v2.1h-4.98Zm-2.14-3.12c0-1.3,1.76-2.06,4.62-2.06s4.62.76,4.62,2.06c0,1.28-1.76,2.06-4.62,2.06S146.78,299.48,146.78,298.2Zm8.74,5.22v-2.54a2.96,2.96,0,0,0,2.18-2.68c0-2.1-2.4-3.34-6.3-3.34-3.88,0-6.3,1.24-6.3,3.34,0,1.22.78,2.12,2.2,2.7v2.52h-4.02v1.32h16.24v-1.32Zm12.22-5.68h3.98v-1.36h-9.7v1.36h4.1v2.28a9.378,9.378,0,0,1-4.72,7.72l.96,1.3a10.127,10.127,0,0,0,4.58-5.94,9.679,9.679,0,0,0,4.5,5.5l.94-1.32a8.626,8.626,0,0,1-4.64-7.26Zm10.72,4.04H175.5v-7.22h-1.64v17.92h1.64v-9.32h2.96Zm14.2-4.1H182.18v3.84H194.6v-1.18H183.8V298.8h10.48v-3.74H182.14v1.16h10.52ZM183.7,309.4h10.64v-3.82h-12.3v1.18h10.68v1.5H182.08v3.98H194.9v-1.18H183.7Zm-3.6-6.52v1.24h16.26v-1.24Zm35.54-4.76a38.3,38.3,0,0,1-.68,8.12l1.64.18a40.441,40.441,0,0,0,.68-8.3v-1.78H204.7v1.34h10.94Zm-4.7,10.5V302.2H209.3v6.42H203v1.34h16.22v-1.34Zm12.72-6.04h6.18v-6.42H222v1.32h6.22v3.76h-6.18v7.08h1.36a48.081,48.081,0,0,0,7.92-.54l-.14-1.36a45.618,45.618,0,0,1-7.52.54Zm10.84-8.06v4.1h-3.54v1.34h3.54v3.58h-3.66v1.34h3.66v7.62h1.64V294.52Zm15.92,2.22h-4.48v-2.2H244.3v2.2h-4.46v1.32h10.58Zm-8.02,5.64c0-1.24,1.1-2.04,2.72-2.04s2.74.8,2.74,2.04c0,1.26-1.12,2.06-2.74,2.06S242.4,303.64,242.4,302.38Zm7.02,0c0-2-1.76-3.32-4.3-3.32s-4.28,1.32-4.28,3.32c0,2.02,1.74,3.34,4.28,3.34S249.42,304.4,249.42,302.38Zm-5.24,4.56h-1.64v5.14H254.5v-1.34H244.18Zm9.52-6.48v-5.92h-1.64V308h1.64v-6.16h2.64v-1.38Zm11.74-2.84h6.86v-1.38h-8.48v11.82h1.44a45.391,45.391,0,0,0,8.72-.62l-.18-1.38a41.909,41.909,0,0,1-8.36.6Zm10.26-3.08v17.98h1.64V294.54Zm7.6,8.3h4.26v-1.3H283.3v-3.52h5.1v-1.34h-6.68v11.48h1.16a31.431,31.431,0,0,0,6.54-.46l-.14-1.34a28.046,28.046,0,0,1-5.98.46Zm7.82-1.5h-2.58v1.34h2.58v8.88h1.54V294.98h-1.54Zm3.6-6.82v17.94h1.56V294.52Zm19.46.02h-1.64v9.2h1.64Zm-12.72,4.64a3.07,3.07,0,1,1,3.04,2.64A2.775,2.775,0,0,1,301.46,299.18Zm7.68,0c0-2.38-1.96-4-4.64-4s-4.62,1.62-4.62,4c0,2.36,1.94,3.96,4.62,3.96S309.14,301.54,309.14,299.18Zm-4.92,11.76v-1.98h9.96v-4.34H302.56v1.3h10v1.82H302.6v4.5h12.18v-1.3Zm26.68-16.4v17.98h1.64V294.54Zm-7.82,1.38c-2.66,0-4.56,2.44-4.56,6.26s1.9,6.26,4.56,6.26,4.56-2.44,4.56-6.26S325.74,295.92,323.08,295.92Zm0,1.48c1.74,0,2.98,1.88,2.98,4.78,0,2.92-1.24,4.8-2.98,4.8-1.76,0-3-1.88-3-4.8C320.08,299.28,321.32,297.4,323.08,297.4Zm30.74-2.84v9.62h1.64v-9.62Zm-9.92,10.5v7.18h11.56v-7.18h-1.62v2.2h-8.32v-2.2Zm1.62,3.48h8.32v2.38h-8.32Zm.3-13.14c-2.7,0-4.66,1.68-4.66,4.12,0,2.48,1.96,4.14,4.66,4.14,2.72,0,4.7-1.66,4.7-4.14C350.52,297.08,348.54,295.4,345.82,295.4Zm0,1.36a2.784,2.784,0,1,1-3.06,2.76A2.822,2.822,0,0,1,345.82,296.76Zm27.7,3.18H362.96V295.2h-1.64v6.08h12.2Zm-10.68,6.86H361.2v5.24h12.42V310.7H362.84Zm-3.72-3.12V305h16.26v-1.32Zm38.14-2.84c-3.12-.48-6.28-2.62-6.28-4.96V295H389.3v.88c0,2.4-3.14,4.52-6.32,5l.64,1.28c2.76-.46,5.42-1.98,6.52-4.08,1.14,2.06,3.78,3.58,6.5,4.04Zm-11.56,6.08h-1.64v5.16h12.42v-1.34H385.7Zm-3.72-3.24V305h7.46v3.62h1.64V305h7.18v-1.32Zm19.2-7.74v1.34h6.6c-.34,3.16-3.1,5.7-7.32,7.02l.66,1.3c5.16-1.62,8.42-5.02,8.42-9.66Zm3.62,10.38h-1.64v5.76h11.96v-1.34H404.8Zm9.54-6.32v-5.44H412.7v13.1h1.64v-6.3h2.64V300Zm17.04,1.68h-8.9v-2.64h8.9Zm1.64-6.42h-1.64v2.46h-8.9v-2.46h-1.62v7.76h12.16Zm2.06,9.92H418.8v1.32h7.28v6h1.64v-6h7.36Zm4.6-2.64h5.88v-1.32h-5.88v-3.7h6.66v-1.36h-8.3v12.02h1.38a43.614,43.614,0,0,0,8.2-.56l-.18-1.34a40.516,40.516,0,0,1-7.76.56Zm10.68-8.02v6.78h-3.7v1.36h3.7v9.84H452V294.52Zm15.78,3.22h3.98v-1.36h-9.7v1.36h4.1v2.28a9.378,9.378,0,0,1-4.72,7.72l.96,1.3a10.127,10.127,0,0,0,4.58-5.94,9.679,9.679,0,0,0,4.5,5.5l.94-1.32a8.626,8.626,0,0,1-4.64-7.26Zm10.72,4.04H473.9v-7.22h-1.64v17.92h1.64v-9.32h2.96Zm3.24,1.48c2.78-.48,5.42-1.98,6.52-4.1,1.08,2.12,3.74,3.62,6.52,4.1l.64-1.3c-3.16-.46-6.26-2.52-6.26-4.88v-.1h5.62v-1.32h-13.1v1.32h5.66v.1c0,2.36-3.1,4.42-6.22,4.88Zm14.62,1.5h-16.2v1.34h7.24v6.38h1.64V306.1h7.34Zm17.16-1.62c-2.64-.76-4.38-2.72-4.38-4.88v-.3h3.96v-1.32H507.5v-2.18h-1.64v2.18h-3.98v1.32h3.98v.3c0,2.36-1.82,4.4-4.48,5.2l.8,1.3a7.175,7.175,0,0,0,4.52-3.96,6.942,6.942,0,0,0,4.4,3.6Zm3.72,4.1v-1.32H503.86v1.32h5c-.26,1.88-2.8,3.46-5.68,3.9l.58,1.26c2.64-.44,4.96-1.7,5.96-3.5,1.02,1.78,3.36,3.08,5.96,3.52l.62-1.26c-2.88-.46-5.42-2.08-5.72-3.92Zm-.3-8.26v-4.42h-1.64v10.4h1.64v-4.62h2.66v-1.36Zm14.42,2.9h-3.1a14.317,14.317,0,0,0,.86-5.06h-6.92v1.34h5.3a11.567,11.567,0,0,1-6.06,9.28l.96,1.18a13.654,13.654,0,0,0,5.28-5.42h3.68v8.38h1.56V295.02h-1.56Zm3.74-7.34v17.94h1.56V294.54Zm15.94,9.08h3.86v-1.34h-7.54v-4.7h7.46v-1.36H544.1v7.4h3.66v3.56c-1.74.06-3.44.06-4.98.06l.2,1.38a79.432,79.432,0,0,0,11.62-.68l-.14-1.2c-1.6.2-3.34.3-5.06.38Zm6.24-9.1v18h1.64v-18Zm19.8,5.42H564.88V295.2h-1.64v6.08h12.2Zm-10.68,6.86h-1.64v5.24h12.42V310.7H564.76Zm-3.72-3.12V305H577.3v-1.32Zm36.02,4.2h1.66V294.56h-1.66v3.4h-3v1.32h3v2.1h-3v1.34h3Zm-9.22-10.56h2.7v6.36c-.9.04-1.82.08-2.7.1Zm6.64,6.04c-.74.08-1.54.16-2.34.22v-6.26h1.78V296h-9.44v1.32h1.78v6.48c-.8.02-1.58.02-2.26.02l.18,1.36a71.182,71.182,0,0,0,10.4-.6Zm-5.62,7.38V306.8h-1.64v5.28h11.96v-1.34Zm15.42-10.52a3.081,3.081,0,1,1,3.08,3A2.943,2.943,0,0,1,604.28,300.22Zm7.76,0a4.688,4.688,0,1,0-4.68,4.42A4.4,4.4,0,0,0,612.04,300.22Zm-5.3,6.18H605.1v5.68h11.96v-1.34H606.74Zm9.52-6.4v-5.46h-1.64v13.2h1.64v-6.38h2.64V300Zm15.12-3.56H626.9v-2.06h-1.64v2.06H620.8v1.32h10.58Zm-8.02,5.42c0-1.18,1.08-1.96,2.72-1.96s2.74.78,2.74,1.96-1.1,1.96-2.74,1.96S623.36,303.04,623.36,301.86Zm7.02,0c0-1.96-1.74-3.2-4.3-3.2s-4.28,1.24-4.28,3.2c0,1.94,1.72,3.18,4.28,3.18S630.38,303.8,630.38,301.86Zm-5.38,5.8h8.04v3.26H625Zm-1.6,4.58h11.26v-5.88H623.4Zm13.92-12.92h-2.66v-4.76h-1.64v10.78h1.64v-4.66h2.66Zm9.92-3.24c2.94,0,4.62.68,4.62,1.88s-1.68,1.88-4.62,1.88-4.62-.68-4.62-1.88S644.3,296.08,647.24,296.08Zm0,4.98c3.94,0,6.3-1.08,6.3-3.1s-2.36-3.12-6.3-3.12-6.3,1.1-6.3,3.12S643.3,301.06,647.24,301.06Zm-4.5,8.12h10.54v-4.04h-12.2v1.24h10.58v1.6H641.14v4.3h12.68V311H642.74Zm-3.62-6.9v1.32h16.24v-1.32ZM14.18,339.96h1.66v-13.4H14.18v4.2H10.26v1.36h3.92Zm-2.64-4.24A6.434,6.434,0,0,1,7.2,329.9v-2.28H5.56v2.22a6.766,6.766,0,0,1-4.48,6.26l.86,1.3a7.812,7.812,0,0,0,4.46-4.68,7.539,7.539,0,0,0,4.28,4.26Zm-5.6,7.02v-4.26H4.3v5.6H16.26v-1.34ZM25.48,328.1H23.86v3.22a9.505,9.505,0,0,1-4.62,8.02l.98,1.32a9.936,9.936,0,0,0,4.46-5.94,9.9,9.9,0,0,0,4.34,5.58l1.02-1.3a9.059,9.059,0,0,1-4.56-7.68Zm10.74,5.72H33.26v-7.26H31.62v17.92h1.64v-9.3h2.96Zm12.28-5.44H44.02v-2.02H42.38v2.02H37.92v1.32H48.5Zm-8.02,5.3c0-1.16,1.08-1.9,2.72-1.9s2.74.74,2.74,1.9c0,1.18-1.1,1.9-2.74,1.9S40.48,334.86,40.48,333.68Zm7.02,0c0-1.9-1.74-3.12-4.3-3.12s-4.28,1.22-4.28,3.12c0,1.92,1.72,3.14,4.28,3.14S47.5,335.6,47.5,333.68Zm2.66,9.24H42.12v-1.98h8.04Zm0-3.26H42.12v-1.9H40.5v6.48H51.78v-6.48H50.16Zm4.28-8.56H51.78v-4.56H50.14v10.42h1.64v-4.48h2.66Zm4.58-2.82H57.38v11.56h1.48a42.618,42.618,0,0,0,8.8-.84l-.18-1.4a42.381,42.381,0,0,1-8.46.84Zm10.3-1.74v17.92h1.64V326.54Zm7.74,3.08h6.7v-1.36H75.42v11.78h1.42a42.526,42.526,0,0,0,8.48-.64l-.18-1.36a43.6,43.6,0,0,1-8.08.6Zm14.36,4H88.46v-7.08H86.82v17.98h1.64v-9.54h2.96Zm3.36,9.64a1.321,1.321,0,0,0,1.32-1.38,1.324,1.324,0,1,0-2.64,0A1.321,1.321,0,0,0,94.78,343.26Z" transform="translate(100 2167)" fill="#484848"/>
  </g>
</svg>
